M48
;Layer_Color=9474304
;FILE_FORMAT=4:4
METRIC,LZ
;TYPE=PLATED
T01F00S00C0.3000
T02F00S00C0.5000
T05F00S00C1.0000
T07F00S00C1.1000
T08F00S00C3.2000
%
T01
X0121031Y0047371
Y0048006
X0121285Y0048387
X0121793Y004826
Y0047752
Y0047371
X0129032Y004572
X01270126Y00523658
X01260234Y00522793
X01257577Y00538008
X01269051Y0053808
X0124714Y0056515
X0124079Y0058801
X01196272Y00588747
X0119696Y00594641
X01197676Y00614857
X01223872Y00626722
X0122428Y0063119
X0122832Y00630702
X01221297Y00633686
X01221852Y00654806
X01229642Y00655086
X01212235Y00657445
X01245576Y00664021
X01243355Y00668519
X01270738Y00648751
X0127Y0064008
X01261169Y00639062
X01266572Y00628372
X01289877Y00639402
X0129921Y0064516
X01302062Y00680172
X01309811Y00679246
X013104Y00686294
X01310738Y00691928
X01305946Y00688601
X01307349Y00698401
Y00703417
X0130248Y0070782
X01295193Y00705653
X01296161Y00711724
X01309877Y00712038
X01314247Y00715689
X01323483Y00718026
X01328434Y0071883
X01338511Y00718685
X0133731Y00706914
X0132973Y00705688
X01328804Y00695857
X01340844Y00696995
X01346235Y00702867
X01352793Y00696997
X01353278Y00689306
X0134623Y00687884
X01337141Y00681966
X01325531Y0068376
X01326246Y00675062
X01317469Y00676114
X01314397Y00701166
X01299285Y00696116
X01285872Y00690981
X01283065Y00703202
X01277193Y007005
X01277115Y00681927
X01284431Y00715709
X01279978Y00722456
X01280382Y00730232
X01284659Y00732853
X01303945Y00734958
X01313822Y00734893
X01316928Y00727743
X01311385Y00725365
X01305983Y00724345
X01323482Y00729373
X01323536Y00761026
X01317239Y00763834
X01312618Y00765786
X0130662Y00766665
X01310464Y00772784
X01309634Y00783842
X01306406Y00788717
X0130133Y00791563
X01294282Y00791126
X01294862Y00784194
X01302301Y00782933
X01314611Y00788239
X01326576Y00782625
X0132666Y00772636
X01339254
X01338841Y00783574
X01357363Y00782352
X01355973Y00787171
X01358334Y00791597
X0136386Y00782578
X01358325Y00772113
X01362237Y00767868
X01357519Y00764691
X013589Y0075692
X01369908Y00755719
X01370879Y00761435
X01370236Y00767868
X01382959Y00771279
X0139123Y0076874
X01396265Y00755173
X0138176Y0073279
X01378381Y00727343
X0137372Y00729258
X01366216Y0072673
X01365454Y00733992
X01355976Y00733669
X01359151Y00725429
X01351692Y00725136
X01357574Y00718833
X01369226Y00713769
X01365741Y00708927
X01363128Y00702073
X01362599Y00696863
X01360043Y0069215
X01369475Y00694319
X01370488Y00688186
X01365905Y00682087
X01363688Y00675822
X01356987Y00672777
X01368661Y00700768
X01374236Y00700772
X01378761Y00704085
X01384317Y00709098
X01382432Y00692822
X01394337Y00690483
X0139573Y0067564
X01344759Y00641693
X01288755Y00614799
X01285475Y00760561
X01282245Y00767906
X01282108Y00775055
X01274197Y00780537
X0127305Y00767531
X01279693Y00755148
X0125476Y0075565
X0124714
X01228126Y00762954
X01231419Y0076775
X01232336Y00781727
X0123829Y00778419
X01222758Y00777907
X0121917Y00774401
X01208624Y00779527
X01207026Y00787944
X01202946Y00785026
X01214307Y00785639
X01216053Y00791647
X01221043Y00791137
X01202542Y00759067
X01194445Y0075919
X01197492Y00763984
X011921Y00769376
X01192148Y00750486
X01196744Y0074589
X01196749Y00737407
X01192148Y00741294
X01191275Y00733186
X0119286Y00721838
X01198606Y00727242
X01201349Y00741549
X01205647Y00746096
X01210754Y00750233
X01207452Y00754009
X01214983Y00746492
X01210513Y00740995
X01207999Y00735696
X01214615Y00735661
X01210756Y00706727
X01205789Y00705883
X01206895Y00700623
X01303116Y00757228
X01313853Y00754652
X01283761Y00786921
X01382874Y00789245
X01382597Y0078215
X01492277Y00716781
X0149352Y0053594
X01421494Y00516922
X01415526Y00517737
X014224Y0057658
X0142367Y0058674
X01435144Y00588919
X014351Y0057658
X01189541Y00580243
X01180661Y00580958
X01173914Y00582932
X01171649Y00577274
X01161273Y00577319
X01157267Y00571214
X01156927Y00563516
X01151857Y00566753
X01167661Y00564687
X01167284Y00571046
X01177836Y00564546
X01190178Y00558963
X01186294Y00601383
X01179541Y00607731
X01171228Y006076
X01171098Y00599287
X01161098
X01161868Y00605434
X0116165Y0058954
X01177648Y00592737
X01172469Y00622021
X01167798Y00619602
X01161592Y00623203
X01151801Y00627028
X01156668Y00632935
X01155448Y00638826
X01160344Y00642322
X01151534Y00646464
X01165612Y00656268
X01163253Y00672898
X01163172Y00679588
X01158213Y00678835
X01167095Y00676462
X01170301Y00672605
X01185791Y00671497
X0118237Y0068072
X01175914Y00685085
X01169736Y00689893
X01165033Y00692985
X01159962Y006917
X0115616Y00694971
X01151575Y00697005
X01150782Y00690735
X01154489Y00686658
X01163868Y00684702
X01163713Y00703604
X01155378Y00704523
X01151626Y00711354
X01156343Y00714602
X01164777Y00714048
X01173764Y00713717
X01170025Y00718441
X01174405Y0072235
X0117836Y00718314
Y00727506
X01182956Y0072291
X01187552Y00718314
X01185182Y00713473
X01177018Y00708343
X01173374Y00704525
X01169168Y00709121
X01169813Y00698173
X01146346Y00694749
X01145768Y00703321
X01143418Y0071212
X01135654Y00711647
X01126617Y00713655
X01122099Y00710505
X01123205Y00718312
X01118609Y00722908
X01114013Y00718312
X01109381Y00721468
X01104852Y00719313
X01104731Y00710502
X01114052Y00708458
X01110524Y00704651
X0110734Y00699877
X01114013Y00699927
X01118273Y0069256
X01115023Y00688739
X01114192Y00683792
X01119866Y006844
X01123678Y0068114
X011237Y00688826
X01127612Y00685687
X0112804Y00693055
X01136681Y00691537
X01139762Y0068172
X01132397Y00681543
X01146491Y00678796
X01142777Y00666733
X01136517Y00660778
X01135876Y00655803
X01128828Y00658708
X01123633Y00662685
X01120048Y00666194
X01123205Y00672351
X01119295Y00676052
X01113863Y00672849
X01109425Y00681246
X0110825Y00686123
X01084719Y00683275
X01083949Y00671209
X01088101Y00668394
X01081516Y00664412
X01076484Y00657577
X01101534Y00662401
X01099946Y0064865
X01112694Y00649293
X01110509Y00653807
X01123607Y00653362
X01119161Y00645172
X01109714Y0063383
X01110487Y00613613
X01112741Y00605101
X01102692Y00607534
X01138519Y00602618
X0113919Y0061468
X0113665Y005715
X0112522Y0057785
X01125375Y00542539
X01133596Y0054236
X0111633Y00533495
X0105458Y00541012
X01022624Y00550761
X0099626Y00535579
X0095525Y00538733
X00951703Y0054228
X00946587Y00550106
X00925235Y00550472
X0090551Y0055118
Y0055626
X00897552Y00555876
X00888895
X00888612Y0054763
X0087884Y0054737
Y0055118
Y0055499
X0086995Y0055372
Y0055753
X0087122Y0054991
X0087376Y0054737
X00898584Y00546788
X00909302Y0057858
X00914722Y00583322
X00917544Y00576548
X00913974Y00592302
X00885318Y00593323
X0087524Y00591659
X00871787Y00599769
Y00604425
X00882899Y0060905
X0088368Y00610372
X00888344Y00610441
X00897453Y00610374
X009017Y0061087
X00897395Y00623676
X00888741Y0062411
X00887708Y00632201
X00898391
X00890035Y0064953
X00873517Y00657235
X00871496Y00643043
X0087613Y00636746
X00866595Y00624538
X00844616Y00631877
X00840599Y00628372
X00838805Y00615278
X00844979Y00612937
X00842413Y00602633
X00847148Y00600238
X00841361Y00581443
X00856939Y00585088
X00809523Y00587341
Y00597341
Y00607341
X00799523
Y00597341
Y00587341
X00797267Y00544664
X0081534Y0053848
X00814025Y00553829
X00825077Y00557454
X00833171Y00557757
X00824462Y00548874
X0083439Y0051943
X00824533Y00488899
X00797042Y0050546
X00799691Y00641371
X00795574Y00657066
X0080772Y0065405
X00818431Y00673109
X00826029Y0071374
X0083693
X0084328
Y007239
X00835808Y0072381
X00827151
X00828284Y00751417
X00832674Y00749298
X0081153Y0076708
X00872645Y00756465
X00889311Y00748536
X00890471Y00768302
X00890581Y00781099
X00891535Y00789912
X00883487Y00789494
X00876643Y00778287
X00907489Y00788174
X009525Y0073152
X0096393Y0073279
X00962733Y0073968
X0096663Y00744535
X00993677Y00748979
X0101092Y0074749
X01024475Y00739859
X01025989Y00732343
X0103365Y0073332
X01041189Y00735037
X0104087Y00727736
X01049613Y00726444
X01053398Y00734426
X01054148Y00741372
X01058285Y00738536
X01057827Y00746598
X0106215Y00750459
X01072864Y00750392
X01077972Y00745533
X01082933Y00740261
X01086484Y00735993
X01095627Y00736698
X0109264Y00731736
X01085385Y00725568
X01086349Y00720645
X0108077Y00723143
X01080996Y00729134
X01068601Y00727697
X01072461Y00723095
X0106338Y00722951
X01062315Y00717995
X01052737Y00714241
X01050463Y00702323
X01041974Y00690069
X01036684Y00676241
X01051213Y00674734
X01023732Y00668933
X00988849Y0067945
X0097028Y00667459
X00965133Y00668179
X00970251Y00660411
X00961873Y00684551
X00956305Y00680192
X00949936Y00681648
X00955543Y006961
X0095504Y0071501
X00997544Y0073211
X01000469Y0073644
X01008609Y00725052
X0102614Y00718183
X01030398Y00710091
X01028958Y00750865
X01022067Y00761579
X01031481Y00772978
X01036631Y00781602
X01043414Y00784871
X01058189Y00781927
X01059552Y00766039
X01041224Y0076387
X01064699Y00741857
X01095627Y0074589
X01099561Y00749876
X01100505Y00742264
X01105729Y00745596
X01110315Y00740749
X01104819Y00736698
X01114011Y00727506
X01132397Y00727504
X01128206Y00733417
X01141318Y00735611
X01136995Y00741294
X01132432Y0074584
X01142053Y00745925
X01150783Y0074589
Y00755082
X01155379Y00750486
X01160912Y00739297
X01169168Y00736698
X01173764Y00741294
X01182413Y0074249
X01178426Y00749314
X0117836Y00764275
X01186393Y00764659
X01183833Y00769484
X01186888Y00774131
X0118102Y00782541
X01176634Y0078643
X01169166Y00782661
X01169168Y00773467
X01174302Y00776823
X01164527Y00777971
X01164572Y00768871
Y00759678
X01159976Y00764275
X01170395Y00765035
X01169168Y00755082
X01141589Y00755084
X01137401Y00751285
X01136993Y0075968
X01141589Y00764276
X01132397
X01127801Y00768873
X01136993
X01146186
X01141589Y00773468
X01142152Y00781816
X01150782Y00782661
X01155378Y00778065
Y00787257
X01149663Y00793009
X01141589Y00791853
X01136993Y00787257
X01123205Y00791853
X01118185
X01118078Y00782311
X0111384Y00774396
X01109417Y00768873
X01114379Y00764561
X01121601Y00763604
X01118609Y0075968
X01118967Y00768189
X01099945Y00769253
X01095592Y00773485
X01090996Y00778081
X01091508Y00755613
X01082386Y00759173
X01105485Y00756124
X01097719Y00715055
X01091863Y00699373
X01086784Y00695849
X01128682Y00704675
X01146186Y00722908
X01154905Y00731627
X01159976Y00727506
X01146187Y00741294
X01182956Y00732102
X01187313Y00729025
X01183524Y00647172
X01186735Y00637429
X01179223Y00635454
X01165837Y0063467
X01189458Y00618118
X01072457Y00628396
X01053145Y00631738
X0104113Y00631875
X00977932Y00572287
X0103124Y0048514
X01039767Y00493031
X01045154Y00495014
X0117729Y0044958
X01001903Y00774323
X00999193Y00776975
X00879372Y00700663
X0087122Y00699116
X00870013Y00688004
X0084963Y0065405
X00832051Y00638117
X00792833Y00636981
X0078732Y00637728
X00761415Y00637809
X00765486Y00648632
X00758014Y00657697
X00756489Y00668023
X00748226Y00667918
X00756896Y00677751
X0075692Y0069215
X0075311
X007493
Y0069596
Y0069977
X0075311
Y0070358
X00755982Y00704188
X0075692Y0070358
Y0069977
Y0069596
X0075311
X00752463Y00706743
X007493Y0070739
Y0070358
X00769326Y00701776
X0077216Y0071628
Y0072644
X0078105
X00781923Y00716987
X00759845Y00715076
X00759373Y00725972
X00756653Y00723885
X00701708Y00716052
X006985Y0071628
Y0071247
X0069469
X0069088
Y0071628
X0069469
X0070235Y00710858
X00678885Y00701761
X00674431Y00671796
X0067056Y0067056
X00632011Y00684904
X00616824Y00704214
X0060706Y0069722
X0063627Y007493
X0064008
X0064389
X006477
Y0075311
X0064389
X0064008
X0063627
Y0075692
X0064008
X0064389
X006477
X00653948Y00770089
X0066548Y0077851
X0066802Y007366
X00688749Y00736427
X00688866Y00740243
X00688925Y00744529
X00688983Y00747992
X00688807Y00732436
X0071882Y0067691
X00737747Y00677063
X00758714Y00619096
X0075438Y0061214
X00759019Y00596309
X00759486Y00590311
X00753453Y00591419
X00752096Y00585206
X00756399Y00575308
X00753436Y00561119
X00761367
X00765555Y00546989
X00774813Y00547422
X00781263Y00549657
X00790721Y00552699
X00791714Y00544859
X007909Y00530633
X00772183Y00510822
X00758376Y00514507
X0073787Y0052705
X0071755Y0054229
X0069569Y00531187
X00669269Y00538481
X0067022Y00544421
X00672752Y0055036
X0067818Y0059817
X0066802Y0060833
X0066421
X006604
Y0061214
Y0061595
X0066421
Y0061976
X0066802
Y0061595
Y0061214
X0066421
X00644869Y00621047
X0070358Y006223
X00711963Y00585361
X00716574Y00577851
X00789523Y00587341
Y00597341
Y00607341
X00778832Y00769599
X00629993Y0076908
X0062484Y0076454
X00618619Y00552427
X00578083Y00560034
X0057785Y0056896
X0056642Y0057023
Y0056261
X0056634Y00549266
X00590531Y00920055
X0059618Y00915734
X00602575Y00912623
X00609506Y00911028
X00616613Y00910768
X00623594Y00909407
X00630589Y00910693
X00637698Y00910508
X00644789Y0091106
X00654385Y00910419
X00661366Y00909058
X00668468Y00909426
X00696608Y00911496
X0069579Y00926516
X00725822Y00920121
X00724756Y00913089
X0072771Y0093853
X007366Y00941324
X0074422Y0094615
X00754386Y00945623
Y00922026
X00760865Y00971631
X00737829Y00970739
X0069342Y0097282
X0068714Y01044402
X00683619Y01094224
X0068141Y01100399
X00682818Y01105213
X00693091Y0110621
X00691964Y01101322
X00695556Y01091684
X00706891Y01092247
X00714275Y01095441
Y01100457
X0072597Y01101267
X0072644Y0110744
X00728661Y01097035
X00717542Y01113976
X0067183Y0110109
X00671472Y01094605
X00666542Y01084918
X00638444Y01012042
X00638822Y0092575
X0063171Y00925714
X00617764Y00925788
X00610657Y00926057
X00603995Y00928545
X00598832Y00933436
X00595985Y00939954
X0059793Y00946795
X00578311Y00945369
X00578089Y00952477
X00580926Y00938755
X00582784Y0093189
X00586031Y00925562
X00589029Y00961952
X00645825Y00924506
X00653171Y0092575
X0071247Y0088265
X0071755Y0087503
X00713216Y00856199
X00699666Y0085022
X0070612Y0083185
X00723743Y00821847
X00738149Y00822754
X007874Y0083947
X00793708Y00970739
X00836114Y00969059
X0083316Y00958327
X00861475Y00972782
X00889359Y00989298
X0097536Y0097536
X0095377Y0092964
X009504Y00916764
X0098967Y00914399
X00993388Y00910489
X00966094Y00878942
X00899697Y00887056
X00883348Y00880407
X00877222Y00890712
X00886872Y00863532
X0089101Y00849062
X00896966Y00851938
X0086536Y00862716
X0084836Y0085598
X0083752Y00847035
X0083439Y0083693
X0083058Y0086487
X00826491Y0087282
X00836391Y00883644
X0081534Y0089154
X0084836Y0080772
X00902023Y00814468
X00915993
X00916383Y00801232
X00901273Y00798122
X0099187Y0081026
Y0081407
X0099568
Y0081026
X0099949
Y0081407
X0102056Y00800503
X01036092Y008236
X01047823Y00812738
X0107093Y00807516
X01075732Y00808967
X01079253Y00802983
X0108031Y00797846
X0108903Y00805991
X01092577Y00809538
X01100892Y00819973
X01103976Y00824131
X0111479Y00812529
X01109492Y00806842
X01109417Y00796449
X01114556Y00800502
X01118708Y00796917
X01118884Y00805275
X01123913Y00800337
X01126969Y00795377
X0113343Y00801045
X01146186Y00799422
X0116435Y00797125
X01173746Y00811842
X01187756Y0081548
X01185496Y0080409
X0118618Y0083185
X0118999Y0084582
X01143581Y00848195
X01138374Y00850417
X01131636Y0082972
X01132567Y00818608
X01084678Y00837304
X01079178Y0083437
X01076018Y00830474
X01071223Y00833296
X01067328Y00830136
X01063544Y00826735
X01062066Y00837393
X0106807Y00846038
X01062837Y00794402
X01101646Y00878942
X0108204Y0098679
X0106172Y0099568
X01143879Y00992022
X0114935Y0098806
X00820327Y01026714
X00799221Y01071541
X00798857Y01090446
X0120142Y00968966
X012065Y00960314
X01217904Y00965087
X01224435Y00952317
X01231052Y00944629
X01236198Y00934337
X012573Y0097282
X01422157Y00958871
X014605Y0092583
X01503339Y00956493
X01497371Y00835334
X01390658Y00846705
X01385309Y00850029
X01376248Y00841552
X01372721Y00828672
X01364553Y00832478
X01342593Y00834355
X01330757Y00834486
X01315493Y00834035
X01309526Y0080996
X01305677Y00813176
X01302989Y00808941
X01295285Y0080981
X01295381Y00802238
X01305865Y00800432
X01306806Y00795505
X01314236Y00793868
X01312847Y0080257
X01326639Y00793813
X01343749Y00794838
X01349854Y0079657
X01349371Y00803617
X01354236Y00800368
X01359017Y00797201
X01363903Y0080168
X01365087Y00808809
X01358626Y00814429
X01342703Y00808242
X01332149Y0081143
X01378073Y0080135
X01380487Y00796169
X012759Y00796741
X01275675Y00803789
X0120813Y00835673
X0120142Y0083566
Y0083058
X0119507Y0083566
X01194266Y00845814
X01195504Y00849199
X01198371Y00845121
X0140462Y0107696
X0144907
T02
X01500005Y00443608
X01494925Y00458848
X01501275Y00475358
X01517785Y00481708
X01534295Y00475358
X01540645Y00458848
X01534295Y00442338
X01517785Y00434718
X005969Y0044196
X0060325Y0045847
X005969Y0047498
X0058039Y0048133
X0056388Y0047498
X0055753Y0045847
X0056261Y0044323
X0058039Y0043434
X005842Y0106934
X0060071Y0107696
X0060706Y0109347
X0060071Y0110998
X005842Y0111633
X0056769Y0110998
X0056134Y0109347
X0056642Y0107823
X0149987
X0149479Y0109347
X0150114Y0110998
X0151765Y0111633
X0153416Y0110998
X0154051Y0109347
X0153416Y0107696
X0151765Y0106934
T05
X01229344Y00513483
X01254344
X01274344
X01299344
T07
X00932021Y0107573
X00957421
X00982821
X01008221
X01033621
X01059021
Y0110761
X01084179
X01109579
X01134979
X01160379
X01185779
X01033621
X01008221
X00982821
X00957421
X00932021
X01211179
X01237242
X01262642
X01288042
X01313442
X01338842
X01364242
X01389623Y0110791
X01415023
X01440423
X01465823
T08
X01517785Y00458848
X0058039Y0045847
X005842Y0109347
X0151765
M30
