M48
;Layer_Color=9474304
;FILE_FORMAT=4:4
METRIC,LZ
;TYPE=PLATED
T03F00S00C0.6000
T04F00S00C0.8000
T06F00S00C1.0000
%
G90
G05
T03
G00X01369061Y00433988
M15
G01Y00439989
M16
G00X01369061Y00474489
M15
G01Y00483489
M16
G00X01455561Y00474489
M15
G01Y00483489
M16
G00X0145556Y00433988
M15
G01Y00439989
M16
G00X006Y00500299
M15
G01X00609
M16
G00X005595Y005003
M15
G01X005655
M16
G00X005595Y005868
M15
G01X005655
M16
G00X006Y00586799
M15
G01X00609
M16
G00X006Y00751811
M15
G01X00609
M16
G00X005595Y00751812
M15
G01X005655
M16
G00X005595Y00838311
M15
G01X005655
M16
G00X006Y00838311
M15
G01X00609
M16
T04
G00X01199845Y00504981
M15
G01Y00491981
M16
G00X01328844Y00504981
M15
G01Y00491981
M16
T06
G00X00996787Y00438278
M15
G01Y00446278
M16
G00X00996787Y00492878
M15
G01Y00510878
M16
G00X01141787Y00492878
M15
G01Y00510878
M16
G00X01141787Y00438278
M15
G01Y00446278
M16
M17
M30
