G04*
G04 #@! TF.GenerationSoftware,Altium Limited,Altium Designer,25.0.2 (28)*
G04*
G04 Layer_Color=128*
%FSLAX44Y44*%
%MOMM*%
G71*
G04*
G04 #@! TF.SameCoordinates,9AC10FA0-6B75-4501-829A-17AB696F6D31*
G04*
G04*
G04 #@! TF.FilePolarity,Positive*
G04*
G01*
G75*
%ADD26R,0.9000X0.8000*%
%ADD31R,0.5500X0.4500*%
%ADD34R,1.0700X0.5320*%
%ADD44R,0.8000X0.9000*%
%ADD46R,1.1000X0.6000*%
%ADD158R,1.0000X0.7500*%
G04:AMPARAMS|DCode=166|XSize=0.8mm|YSize=0.9mm|CornerRadius=0mm|HoleSize=0mm|Usage=FLASHONLY|Rotation=315.000|XOffset=0mm|YOffset=0mm|HoleType=Round|Shape=Rectangle|*
%AMROTATEDRECTD166*
4,1,4,-0.6010,-0.0354,0.0354,0.6010,0.6010,0.0354,-0.0354,-0.6010,-0.6010,-0.0354,0.0*
%
%ADD166ROTATEDRECTD166*%

G04:AMPARAMS|DCode=167|XSize=0.8mm|YSize=0.9mm|CornerRadius=0mm|HoleSize=0mm|Usage=FLASHONLY|Rotation=45.000|XOffset=0mm|YOffset=0mm|HoleType=Round|Shape=Rectangle|*
%AMROTATEDRECTD167*
4,1,4,0.0354,-0.6010,-0.6010,0.0354,-0.0354,0.6010,0.6010,-0.0354,0.0354,-0.6010,0.0*
%
%ADD167ROTATEDRECTD167*%

%ADD171R,1.1000X1.8000*%
%ADD175R,1.8000X2.2000*%
%ADD176R,0.3000X1.2500*%
%ADD179R,1.0000X0.8000*%
%ADD180R,0.4900X1.1750*%
%ADD181R,0.4900X1.1570*%
%ADD213R,2.1016X0.9016*%
%ADD214R,0.9016X2.1016*%
%ADD215R,4.6016X2.4016*%
%ADD216R,0.4016X0.7516*%
%ADD217R,0.5016X0.6116*%
%ADD218R,0.5016X1.0516*%
%ADD219C,0.3666*%
%ADD220R,1.8016X1.1516*%
%ADD221R,1.5016X2.2216*%
G36*
X712181Y1066606D02*
Y1061600D01*
X711781Y1061199D01*
X707181D01*
X706781Y1061600D01*
Y1066606D01*
X707181Y1067006D01*
X711781D01*
X712181Y1066606D01*
D02*
G37*
G36*
Y1058099D02*
Y1053093D01*
X711781Y1052693D01*
X707181D01*
X706781Y1053093D01*
Y1058099D01*
X707181Y1058499D01*
X711781D01*
X712181Y1058099D01*
D02*
G37*
G36*
X648709Y1057854D02*
Y1049854D01*
X648210Y1049354D01*
X640210D01*
X639710Y1049854D01*
Y1052134D01*
X643410D01*
Y1055434D01*
X639710D01*
Y1057854D01*
X640210Y1058354D01*
X648210D01*
X648709Y1057854D01*
D02*
G37*
G36*
X632809Y1057854D02*
Y1055574D01*
X629109D01*
Y1052274D01*
X632809D01*
Y1049854D01*
X632309Y1049354D01*
X624309D01*
X623809Y1049854D01*
Y1057854D01*
X624309Y1058354D01*
X632309D01*
X632809Y1057854D01*
D02*
G37*
G36*
X615048Y1049276D02*
Y1044775D01*
X614548Y1044276D01*
X609748D01*
X609048Y1044775D01*
Y1049276D01*
X609748Y1049775D01*
X614548D01*
X615048Y1049276D01*
D02*
G37*
G36*
X605448D02*
Y1044775D01*
X604748Y1044276D01*
X599948D01*
X599448Y1044775D01*
Y1049276D01*
X599948Y1049775D01*
X604748D01*
X605448Y1049276D01*
D02*
G37*
G36*
X742351Y1046703D02*
Y1042203D01*
X741851Y1041703D01*
X737051D01*
X736351Y1042203D01*
Y1046703D01*
X737051Y1047203D01*
X741851D01*
X742351Y1046703D01*
D02*
G37*
G36*
X732751D02*
Y1042203D01*
X732051Y1041703D01*
X727251D01*
X726751Y1042203D01*
Y1046703D01*
X727251Y1047203D01*
X732051D01*
X732751Y1046703D01*
D02*
G37*
G36*
X712318Y1045409D02*
Y1040609D01*
X711818Y1039909D01*
X707318D01*
X706818Y1040609D01*
Y1045409D01*
X707318Y1045909D01*
X711818D01*
X712318Y1045409D01*
D02*
G37*
G36*
X780312Y1045186D02*
Y1040387D01*
X779812Y1039687D01*
X775312D01*
X774812Y1040387D01*
Y1045186D01*
X775312Y1045687D01*
X779812D01*
X780312Y1045186D01*
D02*
G37*
G36*
X648829Y1044831D02*
Y1036831D01*
X648329Y1036331D01*
X640329D01*
X639829Y1036831D01*
Y1039110D01*
X643529D01*
Y1042410D01*
X639829D01*
Y1044831D01*
X640329Y1045331D01*
X648329D01*
X648829Y1044831D01*
D02*
G37*
G36*
X632929Y1044830D02*
Y1042551D01*
X629229D01*
Y1039251D01*
X632929D01*
Y1036830D01*
X632429Y1036330D01*
X624429D01*
X623929Y1036830D01*
Y1044830D01*
X624429Y1045330D01*
X632429D01*
X632929Y1044830D01*
D02*
G37*
G36*
X712318Y1035609D02*
Y1030809D01*
X711818Y1030309D01*
X707318D01*
X706818Y1030809D01*
Y1035609D01*
X707318Y1036309D01*
X711818D01*
X712318Y1035609D01*
D02*
G37*
G36*
X780312Y1035387D02*
Y1030587D01*
X779812Y1030086D01*
X775312D01*
X774812Y1030587D01*
Y1035387D01*
X775312Y1036086D01*
X779812D01*
X780312Y1035387D01*
D02*
G37*
G36*
X756742Y924507D02*
Y919501D01*
X756342Y919101D01*
X751742D01*
X751342Y919501D01*
Y924507D01*
X751742Y924907D01*
X756342D01*
X756742Y924507D01*
D02*
G37*
G36*
Y916001D02*
Y910994D01*
X756342Y910594D01*
X751742D01*
X751342Y910994D01*
Y916001D01*
X751742Y916401D01*
X756342D01*
X756742Y916001D01*
D02*
G37*
G36*
X817821Y894601D02*
Y890001D01*
X817421Y889601D01*
X812415D01*
X812015Y890001D01*
Y894601D01*
X812415Y895001D01*
X817421D01*
X817821Y894601D01*
D02*
G37*
G36*
X809315D02*
Y890001D01*
X808915Y889601D01*
X803908D01*
X803508Y890001D01*
Y894601D01*
X803908Y895001D01*
X808915D01*
X809315Y894601D01*
D02*
G37*
G36*
X800001Y883617D02*
Y879117D01*
X799501Y878617D01*
X794701D01*
X794001Y879117D01*
Y883617D01*
X794701Y884117D01*
X799501D01*
X800001Y883617D01*
D02*
G37*
G36*
X790401D02*
Y879117D01*
X789701Y878617D01*
X784901D01*
X784401Y879117D01*
Y883617D01*
X784901Y884117D01*
X789701D01*
X790401Y883617D01*
D02*
G37*
G36*
X810606Y863569D02*
Y858769D01*
X810106Y858069D01*
X805606D01*
X805106Y858769D01*
Y863569D01*
X805606Y864069D01*
X810106D01*
X810606Y863569D01*
D02*
G37*
G36*
X797803Y869530D02*
Y854830D01*
X796803Y853830D01*
X791675D01*
X790675Y854830D01*
Y858738D01*
X789675Y859738D01*
X784331D01*
X783331Y858738D01*
Y854830D01*
X782331Y853830D01*
X777203D01*
X776203Y854830D01*
Y869530D01*
X777203Y870530D01*
X796803D01*
X797803Y869530D01*
D02*
G37*
G36*
X1205227Y853593D02*
X1205227Y852886D01*
X1201833Y849492D01*
X1200985Y849350D01*
X1197803Y852532D01*
X1197944Y853381D01*
X1201338Y856775D01*
X1202045Y856775D01*
X1205227Y853593D01*
D02*
G37*
G36*
X810606Y853769D02*
Y848969D01*
X810106Y848469D01*
X805606D01*
X805106Y848969D01*
Y853769D01*
X805606Y854469D01*
X810106D01*
X810606Y853769D01*
D02*
G37*
G36*
X1198439Y846804D02*
X1198297Y845956D01*
X1194903Y842562D01*
X1194196Y842562D01*
X1191014Y845744D01*
X1191014Y846451D01*
X1194408Y849845D01*
X1195257Y849986D01*
X1198439Y846804D01*
D02*
G37*
G36*
X1357472Y847336D02*
Y842536D01*
X1356972Y841836D01*
X1352472D01*
X1351972Y842536D01*
Y847336D01*
X1352472Y847836D01*
X1356972D01*
X1357472Y847336D01*
D02*
G37*
G36*
X797803Y846529D02*
Y831830D01*
X796803Y830829D01*
X777203D01*
X776203Y831830D01*
Y846529D01*
X777203Y847530D01*
X782331D01*
X783331Y846529D01*
Y842621D01*
X784331Y841621D01*
X789675D01*
X790675Y842621D01*
Y846529D01*
X791675Y847530D01*
X796803D01*
X797803Y846529D01*
D02*
G37*
G36*
X1377709Y846792D02*
Y841786D01*
X1377309Y841386D01*
X1372709D01*
X1372309Y841786D01*
Y846792D01*
X1372709Y847192D01*
X1377309D01*
X1377709Y846792D01*
D02*
G37*
G36*
X1344655Y846536D02*
Y841530D01*
X1344255Y841130D01*
X1339655D01*
X1339255Y841530D01*
Y846536D01*
X1339655Y846936D01*
X1344255D01*
X1344655Y846536D01*
D02*
G37*
G36*
X1334144D02*
Y841530D01*
X1333743Y841130D01*
X1329144D01*
X1328743Y841530D01*
Y846536D01*
X1329144Y846936D01*
X1333743D01*
X1334144Y846536D01*
D02*
G37*
G36*
X1217878Y842167D02*
Y841601D01*
X1214337Y838061D01*
X1213772D01*
X1210519Y841314D01*
Y841880D01*
X1214059Y845420D01*
X1214625D01*
X1217878Y842167D01*
D02*
G37*
G36*
X1377709Y838286D02*
Y833279D01*
X1377309Y832879D01*
X1372709D01*
X1372309Y833279D01*
Y838286D01*
X1372709Y838686D01*
X1377309D01*
X1377709Y838286D01*
D02*
G37*
G36*
X1344655Y838029D02*
Y833023D01*
X1344255Y832623D01*
X1339655D01*
X1339255Y833023D01*
Y838029D01*
X1339655Y838430D01*
X1344255D01*
X1344655Y838029D01*
D02*
G37*
G36*
X1334144D02*
Y833023D01*
X1333743Y832623D01*
X1329144D01*
X1328743Y833023D01*
Y838029D01*
X1329144Y838430D01*
X1333743D01*
X1334144Y838029D01*
D02*
G37*
G36*
X1357472Y837536D02*
Y832736D01*
X1356972Y832236D01*
X1352472D01*
X1351972Y832736D01*
Y837536D01*
X1352472Y838236D01*
X1356972D01*
X1357472Y837536D01*
D02*
G37*
G36*
X1211862Y836152D02*
Y835586D01*
X1208323Y832046D01*
X1207757D01*
X1204504Y835299D01*
Y835865D01*
X1208044Y839405D01*
X1208610D01*
X1211862Y836152D01*
D02*
G37*
G36*
X1189006Y832856D02*
Y832291D01*
X1185466Y828751D01*
X1184900D01*
X1181647Y832003D01*
Y832569D01*
X1185188Y836109D01*
X1185753D01*
X1189006Y832856D01*
D02*
G37*
G36*
X1182991Y826841D02*
Y826276D01*
X1179451Y822736D01*
X1178885D01*
X1175632Y825988D01*
Y826554D01*
X1179173Y830094D01*
X1179738D01*
X1182991Y826841D01*
D02*
G37*
G36*
X1198716Y823259D02*
X1198716Y822552D01*
X1195322Y819158D01*
X1194473Y819016D01*
X1191291Y822198D01*
X1191433Y823047D01*
X1194827Y826441D01*
X1195534Y826441D01*
X1198716Y823259D01*
D02*
G37*
G36*
X1065047Y823319D02*
Y818719D01*
X1064647Y818319D01*
X1059641D01*
X1059241Y818719D01*
Y823319D01*
X1059641Y823719D01*
X1064647D01*
X1065047Y823319D01*
D02*
G37*
G36*
X1056541D02*
Y818719D01*
X1056141Y818319D01*
X1051134D01*
X1050734Y818719D01*
Y823319D01*
X1051134Y823719D01*
X1056141D01*
X1056541Y823319D01*
D02*
G37*
G36*
X1334246Y823608D02*
Y818808D01*
X1333746Y818109D01*
X1329246D01*
X1328746Y818808D01*
Y823608D01*
X1329246Y824109D01*
X1333746D01*
X1334246Y823608D01*
D02*
G37*
G36*
X1324891Y823449D02*
Y818649D01*
X1324391Y817949D01*
X1319891D01*
X1319391Y818649D01*
Y823449D01*
X1319891Y823949D01*
X1324391D01*
X1324891Y823449D01*
D02*
G37*
G36*
X1367476Y821464D02*
Y816664D01*
X1366976Y815964D01*
X1362476D01*
X1361976Y816664D01*
Y821464D01*
X1362476Y821964D01*
X1366976D01*
X1367476Y821464D01*
D02*
G37*
G36*
X1303797Y819480D02*
Y814680D01*
X1303298Y813980D01*
X1298797D01*
X1298298Y814680D01*
Y819480D01*
X1298797Y819980D01*
X1303298D01*
X1303797Y819480D01*
D02*
G37*
G36*
X1191928Y816470D02*
X1191786Y815622D01*
X1188392Y812228D01*
X1187685Y812228D01*
X1184503Y815410D01*
X1184503Y816117D01*
X1187897Y819511D01*
X1188746Y819653D01*
X1191928Y816470D01*
D02*
G37*
G36*
X1205227Y816371D02*
X1205227Y815664D01*
X1201833Y812270D01*
X1200984Y812129D01*
X1197802Y815311D01*
X1197944Y816159D01*
X1201338Y819553D01*
X1202045Y819553D01*
X1205227Y816371D01*
D02*
G37*
G36*
X1334246Y813808D02*
Y809009D01*
X1333746Y808509D01*
X1329246D01*
X1328746Y809009D01*
Y813808D01*
X1329246Y814509D01*
X1333746D01*
X1334246Y813808D01*
D02*
G37*
G36*
X1324891Y813649D02*
Y808849D01*
X1324391Y808349D01*
X1319891D01*
X1319391Y808849D01*
Y813649D01*
X1319891Y814349D01*
X1324391D01*
X1324891Y813649D01*
D02*
G37*
G36*
X1065047Y813141D02*
Y808541D01*
X1064647Y808141D01*
X1059641D01*
X1059241Y808541D01*
Y813141D01*
X1059641Y813541D01*
X1064647D01*
X1065047Y813141D01*
D02*
G37*
G36*
X1056541D02*
Y808541D01*
X1056141Y808141D01*
X1051134D01*
X1050734Y808541D01*
Y813141D01*
X1051134Y813541D01*
X1056141D01*
X1056541Y813141D01*
D02*
G37*
G36*
X1356695Y811808D02*
Y807308D01*
X1356195Y806808D01*
X1351395D01*
X1350695Y807308D01*
Y811808D01*
X1351395Y812307D01*
X1356195D01*
X1356695Y811808D01*
D02*
G37*
G36*
X1347095D02*
Y807308D01*
X1346395Y806808D01*
X1341595D01*
X1341095Y807308D01*
Y811808D01*
X1341595Y812307D01*
X1346395D01*
X1347095Y811808D01*
D02*
G37*
G36*
X1367476Y811664D02*
Y806864D01*
X1366976Y806364D01*
X1362476D01*
X1361976Y806864D01*
Y811664D01*
X1362476Y812364D01*
X1366976D01*
X1367476Y811664D01*
D02*
G37*
G36*
X1198439Y809583D02*
X1198297Y808735D01*
X1194903Y805340D01*
X1194196Y805340D01*
X1191014Y808522D01*
X1191014Y809229D01*
X1194408Y812624D01*
X1195257Y812765D01*
X1198439Y809583D01*
D02*
G37*
G36*
X1303797Y809680D02*
Y804880D01*
X1303298Y804380D01*
X1298797D01*
X1298298Y804880D01*
Y809680D01*
X1298797Y810380D01*
X1303298D01*
X1303797Y809680D01*
D02*
G37*
G36*
X904023Y799971D02*
Y795172D01*
X903523Y794472D01*
X899023D01*
X898523Y795172D01*
Y799971D01*
X899023Y800472D01*
X903523D01*
X904023Y799971D01*
D02*
G37*
G36*
X1408062Y798831D02*
Y794331D01*
X1407562Y793831D01*
X1402762D01*
X1402063Y794331D01*
Y798831D01*
X1402762Y799331D01*
X1407562D01*
X1408062Y798831D01*
D02*
G37*
G36*
X1398462D02*
Y794331D01*
X1397762Y793831D01*
X1392962D01*
X1392462Y794331D01*
Y798831D01*
X1392962Y799331D01*
X1397762D01*
X1398462Y798831D01*
D02*
G37*
G36*
X1174807Y796803D02*
Y796237D01*
X1171267Y792697D01*
X1170701D01*
X1167448Y795950D01*
Y796516D01*
X1170988Y800056D01*
X1171554D01*
X1174807Y796803D01*
D02*
G37*
G36*
X1046164Y797621D02*
Y792821D01*
X1045664Y792122D01*
X1041164D01*
X1040664Y792821D01*
Y797621D01*
X1041164Y798121D01*
X1045664D01*
X1046164Y797621D01*
D02*
G37*
G36*
X1055620Y797503D02*
Y792703D01*
X1055120Y792003D01*
X1050620D01*
X1050120Y792703D01*
Y797503D01*
X1050620Y798003D01*
X1055120D01*
X1055620Y797503D01*
D02*
G37*
G36*
X1065947Y797347D02*
Y792547D01*
X1065447Y791848D01*
X1060947D01*
X1060447Y792547D01*
Y797347D01*
X1060947Y797848D01*
X1065447D01*
X1065947Y797347D01*
D02*
G37*
G36*
X1023875Y797129D02*
Y792123D01*
X1023475Y791723D01*
X1018875D01*
X1018475Y792123D01*
Y797129D01*
X1018875Y797529D01*
X1023475D01*
X1023875Y797129D01*
D02*
G37*
G36*
X1034058Y797087D02*
Y792081D01*
X1033658Y791681D01*
X1029058D01*
X1028658Y792081D01*
Y797087D01*
X1029058Y797487D01*
X1033658D01*
X1034058Y797087D01*
D02*
G37*
G36*
X1329794Y796205D02*
Y791705D01*
X1329294Y791205D01*
X1324494D01*
X1323794Y791705D01*
Y796205D01*
X1324494Y796705D01*
X1329294D01*
X1329794Y796205D01*
D02*
G37*
G36*
X1320194D02*
Y791705D01*
X1319494Y791205D01*
X1314694D01*
X1314194Y791705D01*
Y796205D01*
X1314694Y796705D01*
X1319494D01*
X1320194Y796205D01*
D02*
G37*
G36*
X1367699Y796563D02*
Y791763D01*
X1367199Y791063D01*
X1362699D01*
X1362199Y791763D01*
Y796563D01*
X1362699Y797063D01*
X1367199D01*
X1367699Y796563D01*
D02*
G37*
G36*
X1303840Y796017D02*
Y791217D01*
X1303340Y790517D01*
X1298840D01*
X1298340Y791217D01*
Y796017D01*
X1298840Y796517D01*
X1303340D01*
X1303840Y796017D01*
D02*
G37*
G36*
X1353065Y794840D02*
Y790340D01*
X1352565Y789840D01*
X1347765D01*
X1347065Y790340D01*
Y794840D01*
X1347765Y795340D01*
X1352565D01*
X1353065Y794840D01*
D02*
G37*
G36*
X1343465D02*
Y790340D01*
X1342765Y789840D01*
X1337965D01*
X1337465Y790340D01*
Y794840D01*
X1337965Y795340D01*
X1342765D01*
X1343465Y794840D01*
D02*
G37*
G36*
X1168792Y790788D02*
Y790222D01*
X1165252Y786682D01*
X1164686D01*
X1161433Y789935D01*
Y790501D01*
X1164973Y794041D01*
X1165539D01*
X1168792Y790788D01*
D02*
G37*
G36*
X1110250Y793589D02*
X1113645Y790195D01*
X1113786Y789347D01*
X1110604Y786165D01*
X1109756Y786306D01*
X1106361Y789700D01*
X1106361Y790407D01*
X1109543Y793589D01*
X1110250Y793589D01*
D02*
G37*
G36*
X1179100Y787390D02*
Y787050D01*
X1177149Y785099D01*
X1176809D01*
X1174480Y787428D01*
Y787768D01*
X1176432Y789719D01*
X1176771D01*
X1179100Y787390D01*
D02*
G37*
G36*
X904023Y790172D02*
Y785372D01*
X903523Y784872D01*
X899023D01*
X898523Y785372D01*
Y790172D01*
X899023Y790872D01*
X903523D01*
X904023Y790172D01*
D02*
G37*
G36*
X1139857Y786741D02*
Y786402D01*
X1137906Y784450D01*
X1137566D01*
X1135237Y786779D01*
Y787119D01*
X1137188Y789071D01*
X1137528D01*
X1139857Y786741D01*
D02*
G37*
G36*
X1023875Y788623D02*
Y783616D01*
X1023475Y783216D01*
X1018875D01*
X1018475Y783616D01*
Y788623D01*
X1018875Y789023D01*
X1023475D01*
X1023875Y788623D01*
D02*
G37*
G36*
X1034058Y788581D02*
Y783575D01*
X1033658Y783175D01*
X1029058D01*
X1028658Y783575D01*
Y788581D01*
X1029058Y788981D01*
X1033658D01*
X1034058Y788581D01*
D02*
G37*
G36*
X1046164Y787821D02*
Y783021D01*
X1045664Y782521D01*
X1041164D01*
X1040664Y783021D01*
Y787821D01*
X1041164Y788521D01*
X1045664D01*
X1046164Y787821D01*
D02*
G37*
G36*
X1055620Y787703D02*
Y782903D01*
X1055120Y782403D01*
X1050620D01*
X1050120Y782903D01*
Y787703D01*
X1050620Y788403D01*
X1055120D01*
X1055620Y787703D01*
D02*
G37*
G36*
X1065947Y787547D02*
Y782747D01*
X1065447Y782247D01*
X1060947D01*
X1060447Y782747D01*
Y787547D01*
X1060947Y788247D01*
X1065447D01*
X1065947Y787547D01*
D02*
G37*
G36*
X1367699Y786763D02*
Y781963D01*
X1367199Y781463D01*
X1362699D01*
X1362199Y781963D01*
Y786763D01*
X1362699Y787463D01*
X1367199D01*
X1367699Y786763D01*
D02*
G37*
G36*
X1182915Y783575D02*
Y783236D01*
X1180963Y781284D01*
X1180624D01*
X1178294Y783614D01*
Y783953D01*
X1180246Y785905D01*
X1180585D01*
X1182915Y783575D01*
D02*
G37*
G36*
X1303840Y786217D02*
Y781417D01*
X1303340Y780917D01*
X1298840D01*
X1298340Y781417D01*
Y786217D01*
X1298840Y786917D01*
X1303340D01*
X1303840Y786217D01*
D02*
G37*
G36*
X1143672Y782927D02*
Y782587D01*
X1141720Y780636D01*
X1141381D01*
X1139051Y782965D01*
Y783305D01*
X1141003Y785256D01*
X1141342D01*
X1143672Y782927D01*
D02*
G37*
G36*
X1172628Y782844D02*
Y782505D01*
X1170677Y780553D01*
X1170337D01*
X1168008Y782883D01*
Y783222D01*
X1169959Y785174D01*
X1170299D01*
X1172628Y782844D01*
D02*
G37*
G36*
X1153329Y782262D02*
Y781922D01*
X1151378Y779971D01*
X1151038D01*
X1148709Y782300D01*
Y782640D01*
X1150660Y784591D01*
X1151000D01*
X1153329Y782262D01*
D02*
G37*
G36*
X1352280Y784549D02*
Y780049D01*
X1351780Y779549D01*
X1346980D01*
X1346280Y780049D01*
Y784549D01*
X1346980Y785049D01*
X1351780D01*
X1352280Y784549D01*
D02*
G37*
G36*
X1342680D02*
Y780049D01*
X1341980Y779549D01*
X1337180D01*
X1336680Y780049D01*
Y784549D01*
X1337180Y785049D01*
X1341980D01*
X1342680Y784549D01*
D02*
G37*
G36*
X1117180Y786659D02*
X1120574Y783266D01*
X1120574Y782558D01*
X1117392Y779376D01*
X1116685Y779377D01*
X1113291Y782770D01*
X1113150Y783619D01*
X1116332Y786801D01*
X1117180Y786659D01*
D02*
G37*
G36*
X1329851Y784189D02*
Y779688D01*
X1329351Y779189D01*
X1324551D01*
X1323851Y779688D01*
Y784189D01*
X1324551Y784688D01*
X1329351D01*
X1329851Y784189D01*
D02*
G37*
G36*
X1320251D02*
Y779688D01*
X1319551Y779189D01*
X1314751D01*
X1314251Y779688D01*
Y784189D01*
X1314751Y784688D01*
X1319551D01*
X1320251Y784189D01*
D02*
G37*
G36*
X1109386Y780563D02*
Y780223D01*
X1107056Y777894D01*
X1106717D01*
X1104765Y779845D01*
Y780185D01*
X1107094Y782514D01*
X1107434D01*
X1109386Y780563D01*
D02*
G37*
G36*
X656698Y782840D02*
Y778040D01*
X656198Y777340D01*
X651698D01*
X651198Y778040D01*
Y782840D01*
X651698Y783340D01*
X656198D01*
X656698Y782840D01*
D02*
G37*
G36*
X1176443Y779030D02*
Y778690D01*
X1174491Y776739D01*
X1174152D01*
X1171822Y779068D01*
Y779408D01*
X1173774Y781359D01*
X1174113D01*
X1176443Y779030D01*
D02*
G37*
G36*
X1157144Y778447D02*
Y778108D01*
X1155192Y776156D01*
X1154853D01*
X1152523Y778486D01*
Y778825D01*
X1154475Y780777D01*
X1154814D01*
X1157144Y778447D01*
D02*
G37*
G36*
X1167375Y777307D02*
Y776967D01*
X1165424Y775016D01*
X1165084D01*
X1162755Y777345D01*
Y777685D01*
X1164706Y779636D01*
X1165046D01*
X1167375Y777307D01*
D02*
G37*
G36*
X666969Y780267D02*
Y775261D01*
X666569Y774861D01*
X661969D01*
X661569Y775261D01*
Y780267D01*
X661969Y780667D01*
X666569D01*
X666969Y780267D01*
D02*
G37*
G36*
X646590Y780186D02*
Y775180D01*
X646190Y774780D01*
X641590D01*
X641190Y775180D01*
Y780186D01*
X641590Y780586D01*
X646190D01*
X646590Y780186D01*
D02*
G37*
G36*
X1276522Y779884D02*
Y775084D01*
X1276022Y774384D01*
X1271522D01*
X1271022Y775084D01*
Y779884D01*
X1271522Y780384D01*
X1276022D01*
X1276522Y779884D01*
D02*
G37*
G36*
X1105571Y776748D02*
Y776409D01*
X1103242Y774079D01*
X1102902D01*
X1100950Y776031D01*
Y776370D01*
X1103280Y778700D01*
X1103620D01*
X1105571Y776748D01*
D02*
G37*
G36*
X1117023Y774706D02*
Y774367D01*
X1114693Y772037D01*
X1114354D01*
X1112402Y773989D01*
Y774328D01*
X1114732Y776658D01*
X1115071D01*
X1117023Y774706D01*
D02*
G37*
G36*
X1171190Y773492D02*
Y773153D01*
X1169238Y771201D01*
X1168899D01*
X1166569Y773531D01*
Y773870D01*
X1168521Y775822D01*
X1168860D01*
X1171190Y773492D01*
D02*
G37*
G36*
X1133858Y773868D02*
Y773529D01*
X1131529Y771199D01*
X1131189D01*
X1129238Y773151D01*
Y773490D01*
X1131567Y775820D01*
X1131907D01*
X1133858Y773868D01*
D02*
G37*
G36*
X1374822Y776008D02*
Y771508D01*
X1374322Y771008D01*
X1369522D01*
X1368822Y771508D01*
Y776008D01*
X1369522Y776508D01*
X1374322D01*
X1374822Y776008D01*
D02*
G37*
G36*
X1365222D02*
Y771508D01*
X1364522Y771008D01*
X1359722D01*
X1359222Y771508D01*
Y776008D01*
X1359722Y776508D01*
X1364522D01*
X1365222Y776008D01*
D02*
G37*
G36*
X1143408Y773156D02*
Y772816D01*
X1141078Y770487D01*
X1140739D01*
X1138787Y772439D01*
Y772778D01*
X1141116Y775107D01*
X1141456D01*
X1143408Y773156D01*
D02*
G37*
G36*
X1180121Y773100D02*
Y772761D01*
X1177792Y770432D01*
X1177452D01*
X1175501Y772383D01*
Y772722D01*
X1177830Y775052D01*
X1178170D01*
X1180121Y773100D01*
D02*
G37*
G36*
X1162887Y772574D02*
Y772234D01*
X1160936Y770283D01*
X1160596D01*
X1158267Y772612D01*
Y772952D01*
X1160218Y774903D01*
X1160558D01*
X1162887Y772574D01*
D02*
G37*
G36*
X1330681Y774909D02*
Y770408D01*
X1330181Y769909D01*
X1325381D01*
X1324681Y770408D01*
Y774909D01*
X1325381Y775408D01*
X1330181D01*
X1330681Y774909D01*
D02*
G37*
G36*
X1321081D02*
Y770408D01*
X1320381Y769909D01*
X1315581D01*
X1315081Y770408D01*
Y774909D01*
X1315581Y775408D01*
X1320381D01*
X1321081Y774909D01*
D02*
G37*
G36*
X1310224Y774706D02*
Y770206D01*
X1309724Y769706D01*
X1304924D01*
X1304224Y770206D01*
Y774706D01*
X1304924Y775206D01*
X1309724D01*
X1310224Y774706D01*
D02*
G37*
G36*
X1300624D02*
Y770206D01*
X1299924Y769706D01*
X1295124D01*
X1294624Y770206D01*
Y774706D01*
X1295124Y775206D01*
X1299924D01*
X1300624Y774706D01*
D02*
G37*
G36*
X1353708Y774084D02*
Y769584D01*
X1353208Y769084D01*
X1348408D01*
X1347708Y769584D01*
Y774084D01*
X1348408Y774584D01*
X1353208D01*
X1353708Y774084D01*
D02*
G37*
G36*
X1344108D02*
Y769584D01*
X1343408Y769084D01*
X1338608D01*
X1338108Y769584D01*
Y774084D01*
X1338608Y774584D01*
X1343408D01*
X1344108Y774084D01*
D02*
G37*
G36*
X1106155Y770548D02*
Y770208D01*
X1104203Y768257D01*
X1103864D01*
X1101534Y770586D01*
Y770926D01*
X1103486Y772877D01*
X1103825D01*
X1106155Y770548D01*
D02*
G37*
G36*
X1113208Y770892D02*
Y770552D01*
X1110879Y768223D01*
X1110539D01*
X1108588Y770174D01*
Y770514D01*
X1110917Y772843D01*
X1111257D01*
X1113208Y770892D01*
D02*
G37*
G36*
X656698Y773040D02*
Y768240D01*
X656198Y767740D01*
X651698D01*
X651198Y768240D01*
Y773040D01*
X651698Y773740D01*
X656198D01*
X656698Y773040D01*
D02*
G37*
G36*
X1130044Y770054D02*
Y769714D01*
X1127714Y767385D01*
X1127375D01*
X1125423Y769336D01*
Y769676D01*
X1127753Y772005D01*
X1128092D01*
X1130044Y770054D01*
D02*
G37*
G36*
X1139593Y769341D02*
Y769002D01*
X1137264Y766673D01*
X1136924D01*
X1134973Y768624D01*
Y768964D01*
X1137302Y771293D01*
X1137641D01*
X1139593Y769341D01*
D02*
G37*
G36*
X1176307Y769286D02*
Y768947D01*
X1173977Y766617D01*
X1173638D01*
X1171686Y768569D01*
Y768908D01*
X1174016Y771237D01*
X1174355D01*
X1176307Y769286D01*
D02*
G37*
G36*
X1166702Y768759D02*
Y768420D01*
X1164750Y766468D01*
X1164410D01*
X1162081Y768798D01*
Y769137D01*
X1164033Y771089D01*
X1164372D01*
X1166702Y768759D01*
D02*
G37*
G36*
X666969Y771761D02*
Y766755D01*
X666569Y766355D01*
X661969D01*
X661569Y766755D01*
Y771761D01*
X661969Y772161D01*
X666569D01*
X666969Y771761D01*
D02*
G37*
G36*
X1121671Y768978D02*
Y768639D01*
X1119342Y766310D01*
X1119002D01*
X1117050Y768261D01*
Y768600D01*
X1119380Y770930D01*
X1119719D01*
X1121671Y768978D01*
D02*
G37*
G36*
X646590Y771680D02*
Y766674D01*
X646190Y766273D01*
X641590D01*
X641190Y766674D01*
Y771680D01*
X641590Y772080D01*
X646190D01*
X646590Y771680D01*
D02*
G37*
G36*
X1102829Y767283D02*
Y766944D01*
X1100877Y764992D01*
X1100538D01*
X1098208Y767322D01*
Y767661D01*
X1100160Y769613D01*
X1100499D01*
X1102829Y767283D01*
D02*
G37*
G36*
X1149793Y767487D02*
Y767148D01*
X1147463Y764818D01*
X1147124D01*
X1145172Y766770D01*
Y767110D01*
X1147502Y769439D01*
X1147841D01*
X1149793Y767487D01*
D02*
G37*
G36*
X1276522Y770084D02*
Y765284D01*
X1276022Y764784D01*
X1271522D01*
X1271022Y765284D01*
Y770084D01*
X1271522Y770784D01*
X1276022D01*
X1276522Y770084D01*
D02*
G37*
G36*
X1109969Y766733D02*
Y766394D01*
X1108018Y764442D01*
X1107678D01*
X1105349Y766772D01*
Y767111D01*
X1107300Y769063D01*
X1107640D01*
X1109969Y766733D01*
D02*
G37*
G36*
X1062233Y765397D02*
Y765058D01*
X1059904Y762728D01*
X1059564D01*
X1057613Y764680D01*
Y765019D01*
X1059942Y767349D01*
X1060282D01*
X1062233Y765397D01*
D02*
G37*
G36*
X1117857Y765164D02*
Y764825D01*
X1115527Y762495D01*
X1115188D01*
X1113236Y764447D01*
Y764786D01*
X1115565Y767115D01*
X1115905D01*
X1117857Y765164D01*
D02*
G37*
G36*
X1075522Y769607D02*
X1078916Y766213D01*
X1079057Y765365D01*
X1075875Y762182D01*
X1075027Y762324D01*
X1071633Y765718D01*
X1071633Y766425D01*
X1074815Y769607D01*
X1075522Y769607D01*
D02*
G37*
G36*
X1106643Y763469D02*
Y763129D01*
X1104692Y761178D01*
X1104352D01*
X1102023Y763507D01*
Y763847D01*
X1103974Y765798D01*
X1104314D01*
X1106643Y763469D01*
D02*
G37*
G36*
X1098781Y763453D02*
Y763113D01*
X1096829Y761161D01*
X1096490D01*
X1094161Y763491D01*
Y763830D01*
X1096112Y765782D01*
X1096452D01*
X1098781Y763453D01*
D02*
G37*
G36*
X1145978Y763673D02*
Y763334D01*
X1143649Y761004D01*
X1143309D01*
X1141358Y762956D01*
Y763295D01*
X1143687Y765624D01*
X1144027D01*
X1145978Y763673D01*
D02*
G37*
G36*
X1161340Y765025D02*
X1161339Y764318D01*
X1157945Y760924D01*
X1157097Y760782D01*
X1153915Y763964D01*
X1154056Y764813D01*
X1157450Y768207D01*
X1158158Y768207D01*
X1161340Y765025D01*
D02*
G37*
G36*
X1182059Y764728D02*
X1182059Y764021D01*
X1178665Y760627D01*
X1177817Y760486D01*
X1174634Y763668D01*
X1174776Y764516D01*
X1178170Y767910D01*
X1178877Y767911D01*
X1182059Y764728D01*
D02*
G37*
G36*
X1058419Y761583D02*
Y761243D01*
X1056089Y758914D01*
X1055750D01*
X1053798Y760865D01*
Y761205D01*
X1056128Y763534D01*
X1056467D01*
X1058419Y761583D01*
D02*
G37*
G36*
X1111324Y760142D02*
Y759802D01*
X1108994Y757473D01*
X1108655D01*
X1106703Y759424D01*
Y759764D01*
X1109033Y762093D01*
X1109372D01*
X1111324Y760142D01*
D02*
G37*
G36*
X1102596Y759638D02*
Y759299D01*
X1100644Y757347D01*
X1100304D01*
X1097975Y759677D01*
Y760016D01*
X1099927Y761968D01*
X1100266D01*
X1102596Y759638D01*
D02*
G37*
G36*
X1120388Y759978D02*
Y759639D01*
X1118058Y757309D01*
X1117719D01*
X1115767Y759261D01*
Y759600D01*
X1118097Y761930D01*
X1118436D01*
X1120388Y759978D01*
D02*
G37*
G36*
X1186079Y759296D02*
Y758956D01*
X1183750Y756627D01*
X1183410D01*
X1181459Y758578D01*
Y758918D01*
X1183788Y761247D01*
X1184128D01*
X1186079Y759296D01*
D02*
G37*
G36*
X1082452Y762677D02*
X1085846Y759283D01*
X1085846Y758576D01*
X1082664Y755394D01*
X1081957Y755394D01*
X1078563Y758788D01*
X1078421Y759637D01*
X1081603Y762819D01*
X1082452Y762677D01*
D02*
G37*
G36*
X1154551Y758237D02*
X1154410Y757388D01*
X1151016Y753994D01*
X1150309Y753994D01*
X1147127Y757176D01*
X1147127Y757883D01*
X1150521Y761277D01*
X1151369Y761419D01*
X1154551Y758237D01*
D02*
G37*
G36*
X1175271Y757940D02*
X1175129Y757092D01*
X1171735Y753698D01*
X1171028Y753698D01*
X1167846Y756880D01*
X1167846Y757587D01*
X1171240Y760981D01*
X1172089Y761122D01*
X1175271Y757940D01*
D02*
G37*
G36*
X1107509Y756327D02*
Y755988D01*
X1105180Y753658D01*
X1104840D01*
X1102889Y755610D01*
Y755949D01*
X1105218Y758279D01*
X1105558D01*
X1107509Y756327D01*
D02*
G37*
G36*
X1116573Y756164D02*
Y755824D01*
X1114244Y753495D01*
X1113904D01*
X1111953Y755446D01*
Y755786D01*
X1114282Y758115D01*
X1114622D01*
X1116573Y756164D01*
D02*
G37*
G36*
X1316607Y758027D02*
Y753526D01*
X1316106Y753027D01*
X1311306D01*
X1310607Y753526D01*
Y758027D01*
X1311306Y758526D01*
X1316106D01*
X1316607Y758027D01*
D02*
G37*
G36*
X1307006D02*
Y753526D01*
X1306306Y753027D01*
X1301507D01*
X1301006Y753526D01*
Y758027D01*
X1301507Y758526D01*
X1306306D01*
X1307006Y758027D01*
D02*
G37*
G36*
X1372258Y757969D02*
Y753469D01*
X1371758Y752969D01*
X1366957D01*
X1366258Y753469D01*
Y757969D01*
X1366957Y758469D01*
X1371758D01*
X1372258Y757969D01*
D02*
G37*
G36*
X1362657D02*
Y753469D01*
X1361957Y752969D01*
X1357158D01*
X1356658Y753469D01*
Y757969D01*
X1357158Y758469D01*
X1361957D01*
X1362657Y757969D01*
D02*
G37*
G36*
X1182265Y755481D02*
Y755142D01*
X1179935Y752812D01*
X1179596D01*
X1177644Y754764D01*
Y755104D01*
X1179974Y757433D01*
X1180313D01*
X1182265Y755481D01*
D02*
G37*
G36*
X1292881Y757764D02*
Y753264D01*
X1292381Y752764D01*
X1287581D01*
X1286881Y753264D01*
Y757764D01*
X1287581Y758264D01*
X1292381D01*
X1292881Y757764D01*
D02*
G37*
G36*
X1283281D02*
Y753264D01*
X1282581Y752764D01*
X1277781D01*
X1277281Y753264D01*
Y757764D01*
X1277781Y758264D01*
X1282581D01*
X1283281Y757764D01*
D02*
G37*
G36*
X1037631Y754244D02*
Y749644D01*
X1037231Y749244D01*
X1032224D01*
X1031824Y749644D01*
Y754244D01*
X1032224Y754644D01*
X1037231D01*
X1037631Y754244D01*
D02*
G37*
G36*
X1029124D02*
Y749644D01*
X1028724Y749244D01*
X1023718D01*
X1023318Y749644D01*
Y754244D01*
X1023718Y754644D01*
X1028724D01*
X1029124Y754244D01*
D02*
G37*
G36*
X1064329Y751713D02*
Y751374D01*
X1061999Y749044D01*
X1061659D01*
X1059708Y750996D01*
Y751335D01*
X1062037Y753665D01*
X1062377D01*
X1064329Y751713D01*
D02*
G37*
G36*
X1101902Y750364D02*
Y750025D01*
X1099573Y747695D01*
X1099233D01*
X1097282Y749647D01*
Y749986D01*
X1099611Y752316D01*
X1099951D01*
X1101902Y750364D01*
D02*
G37*
G36*
X1076261Y750451D02*
Y749885D01*
X1073009Y746632D01*
X1072443D01*
X1068903Y750173D01*
Y750738D01*
X1072156Y753991D01*
X1072721D01*
X1076261Y750451D01*
D02*
G37*
G36*
X1195469Y750037D02*
X1195469Y749330D01*
X1192074Y745936D01*
X1191226Y745794D01*
X1188044Y748976D01*
X1188185Y749825D01*
X1191580Y753219D01*
X1192287Y753219D01*
X1195469Y750037D01*
D02*
G37*
G36*
X1060514Y747899D02*
Y747559D01*
X1058185Y745230D01*
X1057845D01*
X1055893Y747181D01*
Y747521D01*
X1058223Y749850D01*
X1058562D01*
X1060514Y747899D01*
D02*
G37*
G36*
X1173298Y746957D02*
Y746617D01*
X1171346Y744666D01*
X1171007D01*
X1168677Y746995D01*
Y747335D01*
X1170629Y749286D01*
X1170968D01*
X1173298Y746957D01*
D02*
G37*
G36*
X1098088Y746550D02*
Y746210D01*
X1095758Y743881D01*
X1095419D01*
X1093467Y745833D01*
Y746172D01*
X1095797Y748502D01*
X1096136D01*
X1098088Y746550D01*
D02*
G37*
G36*
X1107014Y745376D02*
Y745036D01*
X1105063Y743085D01*
X1104723D01*
X1102394Y745414D01*
Y745754D01*
X1104345Y747705D01*
X1104685D01*
X1107014Y745376D01*
D02*
G37*
G36*
X1153841Y750257D02*
X1157235Y746863D01*
X1157376Y746015D01*
X1154194Y742833D01*
X1153346Y742974D01*
X1149952Y746368D01*
X1149952Y747076D01*
X1153134Y750258D01*
X1153841Y750257D01*
D02*
G37*
G36*
X1177112Y743142D02*
Y742803D01*
X1175161Y740851D01*
X1174821D01*
X1172492Y743181D01*
Y743520D01*
X1174443Y745472D01*
X1174783D01*
X1177112Y743142D01*
D02*
G37*
G36*
X1082276Y744436D02*
Y743870D01*
X1079024Y740618D01*
X1078458D01*
X1074918Y744157D01*
Y744723D01*
X1078170Y747976D01*
X1078736D01*
X1082276Y744436D01*
D02*
G37*
G36*
X1168222Y741933D02*
Y741593D01*
X1166270Y739641D01*
X1165931D01*
X1163602Y741971D01*
Y742310D01*
X1165553Y744262D01*
X1165892D01*
X1168222Y741933D01*
D02*
G37*
G36*
X1110829Y741562D02*
Y741222D01*
X1108877Y739270D01*
X1108538D01*
X1106208Y741600D01*
Y741939D01*
X1108160Y743891D01*
X1108499D01*
X1110829Y741562D01*
D02*
G37*
G36*
X1037489Y744240D02*
Y739640D01*
X1037089Y739240D01*
X1032082D01*
X1031682Y739640D01*
Y744240D01*
X1032082Y744640D01*
X1037089D01*
X1037489Y744240D01*
D02*
G37*
G36*
X1028982D02*
Y739640D01*
X1028582Y739240D01*
X1023576D01*
X1023176Y739640D01*
Y744240D01*
X1023576Y744640D01*
X1028582D01*
X1028982Y744240D01*
D02*
G37*
G36*
X1188680Y743249D02*
X1188539Y742400D01*
X1185145Y739006D01*
X1184438Y739006D01*
X1181256Y742188D01*
X1181256Y742895D01*
X1184650Y746289D01*
X1185498Y746431D01*
X1188680Y743249D01*
D02*
G37*
G36*
X1102791Y741226D02*
Y740886D01*
X1100839Y738935D01*
X1100499D01*
X1098170Y741264D01*
Y741604D01*
X1100122Y743555D01*
X1100461D01*
X1102791Y741226D01*
D02*
G37*
G36*
X1092681Y741045D02*
Y740705D01*
X1090351Y738376D01*
X1090012D01*
X1088060Y740327D01*
Y740667D01*
X1090390Y742996D01*
X1090729D01*
X1092681Y741045D01*
D02*
G37*
G36*
X1160770Y743328D02*
X1164165Y739934D01*
X1164165Y739227D01*
X1160983Y736044D01*
X1160276Y736045D01*
X1156881Y739439D01*
X1156740Y740287D01*
X1159922Y743469D01*
X1160770Y743328D01*
D02*
G37*
G36*
X1172036Y738118D02*
Y737778D01*
X1170085Y735827D01*
X1169745D01*
X1167416Y738156D01*
Y738496D01*
X1169368Y740447D01*
X1169707D01*
X1172036Y738118D01*
D02*
G37*
G36*
X1147309Y742899D02*
X1150703Y739505D01*
X1150844Y738656D01*
X1147662Y735474D01*
X1146814Y735616D01*
X1143420Y739010D01*
X1143420Y739717D01*
X1146602Y742899D01*
X1147309Y742899D01*
D02*
G37*
G36*
X1106605Y737411D02*
Y737072D01*
X1104653Y735120D01*
X1104314D01*
X1101984Y737450D01*
Y737789D01*
X1103936Y739741D01*
X1104276D01*
X1106605Y737411D01*
D02*
G37*
G36*
X1088866Y737230D02*
Y736891D01*
X1086537Y734561D01*
X1086197D01*
X1084246Y736513D01*
Y736852D01*
X1086575Y739182D01*
X1086915D01*
X1088866Y737230D01*
D02*
G37*
G36*
X1098718Y736251D02*
Y735912D01*
X1096767Y733960D01*
X1096427D01*
X1094098Y736290D01*
Y736629D01*
X1096049Y738581D01*
X1096389D01*
X1098718Y736251D01*
D02*
G37*
G36*
X1315024Y736242D02*
Y731742D01*
X1314524Y731242D01*
X1309724D01*
X1309025Y731742D01*
Y736242D01*
X1309724Y736742D01*
X1314524D01*
X1315024Y736242D01*
D02*
G37*
G36*
X1305424D02*
Y731742D01*
X1304724Y731242D01*
X1299924D01*
X1299424Y731742D01*
Y736242D01*
X1299924Y736742D01*
X1304724D01*
X1305424Y736242D01*
D02*
G37*
G36*
X1410784Y735259D02*
Y730759D01*
X1410283Y730259D01*
X1405483D01*
X1404784Y730759D01*
Y735259D01*
X1405483Y735758D01*
X1410283D01*
X1410784Y735259D01*
D02*
G37*
G36*
X1401183D02*
Y730759D01*
X1400483Y730259D01*
X1395683D01*
X1395183Y730759D01*
Y735259D01*
X1395683Y735758D01*
X1400483D01*
X1401183Y735259D01*
D02*
G37*
G36*
X1369292Y735258D02*
Y730758D01*
X1368792Y730258D01*
X1363992D01*
X1363292Y730758D01*
Y735258D01*
X1363992Y735758D01*
X1368792D01*
X1369292Y735258D01*
D02*
G37*
G36*
X1359691D02*
Y730758D01*
X1358992Y730258D01*
X1354192D01*
X1353692Y730758D01*
Y735258D01*
X1354192Y735758D01*
X1358992D01*
X1359691Y735258D01*
D02*
G37*
G36*
X1102533Y732437D02*
Y732097D01*
X1100581Y730146D01*
X1100241D01*
X1097912Y732475D01*
Y732815D01*
X1099864Y734766D01*
X1100203D01*
X1102533Y732437D01*
D02*
G37*
G36*
X1093360Y731940D02*
Y731601D01*
X1091030Y729271D01*
X1090691D01*
X1088739Y731223D01*
Y731562D01*
X1091069Y733892D01*
X1091408D01*
X1093360Y731940D01*
D02*
G37*
G36*
X1154238Y735969D02*
X1157633Y732575D01*
X1157633Y731868D01*
X1154451Y728686D01*
X1153744Y728686D01*
X1150349Y732080D01*
X1150208Y732929D01*
X1153390Y736111D01*
X1154238Y735969D01*
D02*
G37*
G36*
X1332104Y733718D02*
Y728918D01*
X1331604Y728218D01*
X1327104D01*
X1326604Y728918D01*
Y733718D01*
X1327104Y734218D01*
X1331604D01*
X1332104Y733718D01*
D02*
G37*
G36*
X1172268Y728091D02*
Y727752D01*
X1170317Y725800D01*
X1169977D01*
X1167648Y728130D01*
Y728469D01*
X1169600Y730421D01*
X1169939D01*
X1172268Y728091D01*
D02*
G37*
G36*
X1280781Y731272D02*
Y726472D01*
X1280281Y725772D01*
X1275781D01*
X1275281Y726472D01*
Y731272D01*
X1275781Y731772D01*
X1280281D01*
X1280781Y731272D01*
D02*
G37*
G36*
X1089545Y728126D02*
Y727786D01*
X1087216Y725457D01*
X1086876D01*
X1084925Y727409D01*
Y727748D01*
X1087254Y730078D01*
X1087594D01*
X1089545Y728126D01*
D02*
G37*
G36*
X1162053Y727593D02*
Y727254D01*
X1159724Y724924D01*
X1159385D01*
X1157433Y726876D01*
Y727215D01*
X1159762Y729545D01*
X1160102D01*
X1162053Y727593D01*
D02*
G37*
G36*
X1037631Y729837D02*
Y725237D01*
X1037231Y724837D01*
X1032224D01*
X1031824Y725237D01*
Y729837D01*
X1032224Y730237D01*
X1037231D01*
X1037631Y729837D01*
D02*
G37*
G36*
X1029124D02*
Y725237D01*
X1028724Y724837D01*
X1023718D01*
X1023318Y725237D01*
Y729837D01*
X1023718Y730237D01*
X1028724D01*
X1029124Y729837D01*
D02*
G37*
G36*
X1137797Y730198D02*
X1141191Y726803D01*
X1141332Y725955D01*
X1138150Y722773D01*
X1137302Y722914D01*
X1133908Y726309D01*
X1133908Y727016D01*
X1137090Y730198D01*
X1137797Y730198D01*
D02*
G37*
G36*
X1102184Y724977D02*
Y724638D01*
X1099854Y722308D01*
X1099515D01*
X1097563Y724260D01*
Y724599D01*
X1099892Y726929D01*
X1100232D01*
X1102184Y724977D01*
D02*
G37*
G36*
X1176083Y724277D02*
Y723938D01*
X1174131Y721986D01*
X1173792D01*
X1171462Y724315D01*
Y724655D01*
X1173414Y726606D01*
X1173753D01*
X1176083Y724277D01*
D02*
G37*
G36*
X838636Y726110D02*
Y721510D01*
X838236Y721110D01*
X833230D01*
X832829Y721510D01*
Y726110D01*
X833230Y726510D01*
X838236D01*
X838636Y726110D01*
D02*
G37*
G36*
X830129D02*
Y721510D01*
X829729Y721110D01*
X824723D01*
X824323Y721510D01*
Y726110D01*
X824723Y726510D01*
X829729D01*
X830129Y726110D01*
D02*
G37*
G36*
X1158239Y723779D02*
Y723439D01*
X1155910Y721110D01*
X1155570D01*
X1153618Y723061D01*
Y723401D01*
X1155948Y725730D01*
X1156287D01*
X1158239Y723779D01*
D02*
G37*
G36*
X1166841Y722468D02*
Y722129D01*
X1164890Y720177D01*
X1164550D01*
X1162221Y722507D01*
Y722846D01*
X1164172Y724798D01*
X1164512D01*
X1166841Y722468D01*
D02*
G37*
G36*
X1083233Y722486D02*
Y722147D01*
X1080904Y719817D01*
X1080564D01*
X1078613Y721769D01*
Y722108D01*
X1080942Y724438D01*
X1081282D01*
X1083233Y722486D01*
D02*
G37*
G36*
X1332104Y723918D02*
Y719118D01*
X1331604Y718618D01*
X1327104D01*
X1326604Y719118D01*
Y723918D01*
X1327104Y724618D01*
X1331604D01*
X1332104Y723918D01*
D02*
G37*
G36*
X1098369Y721163D02*
Y720823D01*
X1096040Y718494D01*
X1095700D01*
X1093748Y720445D01*
Y720785D01*
X1096078Y723114D01*
X1096417D01*
X1098369Y721163D01*
D02*
G37*
G36*
X1062808Y719749D02*
Y716989D01*
X1062568Y716749D01*
X1059274D01*
X1059034Y716989D01*
Y719749D01*
X1059274Y719989D01*
X1062568D01*
X1062808Y719749D01*
D02*
G37*
G36*
X1057414D02*
Y716989D01*
X1057174Y716749D01*
X1053879D01*
X1053639Y716989D01*
Y719749D01*
X1053879Y719989D01*
X1057174D01*
X1057414Y719749D01*
D02*
G37*
G36*
X1371749Y721735D02*
Y717235D01*
X1371248Y716735D01*
X1366448D01*
X1365749Y717235D01*
Y721735D01*
X1366448Y722235D01*
X1371248D01*
X1371749Y721735D01*
D02*
G37*
G36*
X1362148D02*
Y717235D01*
X1361448Y716735D01*
X1356649D01*
X1356148Y717235D01*
Y721735D01*
X1356649Y722235D01*
X1361448D01*
X1362148Y721735D01*
D02*
G37*
G36*
X1350724Y721374D02*
Y716874D01*
X1350224Y716374D01*
X1345423D01*
X1344724Y716874D01*
Y721374D01*
X1345423Y721874D01*
X1350224D01*
X1350724Y721374D01*
D02*
G37*
G36*
X1341124D02*
Y716874D01*
X1340423Y716374D01*
X1335624D01*
X1335124Y716874D01*
Y721374D01*
X1335624Y721874D01*
X1340423D01*
X1341124Y721374D01*
D02*
G37*
G36*
X1170656Y718654D02*
Y718314D01*
X1168704Y716363D01*
X1168364D01*
X1166035Y718692D01*
Y719032D01*
X1167987Y720983D01*
X1168326D01*
X1170656Y718654D01*
D02*
G37*
G36*
X1280781Y721472D02*
Y716672D01*
X1280281Y716172D01*
X1275781D01*
X1275281Y716672D01*
Y721472D01*
X1275781Y722172D01*
X1280281D01*
X1280781Y721472D01*
D02*
G37*
G36*
X1079419Y718672D02*
Y718332D01*
X1077089Y716003D01*
X1076750D01*
X1074798Y717954D01*
Y718294D01*
X1077128Y720623D01*
X1077467D01*
X1079419Y718672D01*
D02*
G37*
G36*
X1144727Y723268D02*
X1148121Y719874D01*
X1148121Y719167D01*
X1144939Y715985D01*
X1144232Y715985D01*
X1140838Y719379D01*
X1140696Y720227D01*
X1143878Y723409D01*
X1144727Y723268D01*
D02*
G37*
G36*
X1107628Y717790D02*
Y717450D01*
X1105677Y715499D01*
X1105337D01*
X1103008Y717828D01*
Y718167D01*
X1104959Y720119D01*
X1105299D01*
X1107628Y717790D01*
D02*
G37*
G36*
X1308341Y720372D02*
Y715872D01*
X1307841Y715372D01*
X1303041D01*
X1302341Y715872D01*
Y720372D01*
X1303041Y720872D01*
X1307841D01*
X1308341Y720372D01*
D02*
G37*
G36*
X1298741D02*
Y715872D01*
X1298041Y715372D01*
X1293241D01*
X1292741Y715872D01*
Y720372D01*
X1293241Y720872D01*
X1298041D01*
X1298741Y720372D01*
D02*
G37*
G36*
X1037560Y720046D02*
Y715446D01*
X1037160Y715046D01*
X1032153D01*
X1031753Y715446D01*
Y720046D01*
X1032153Y720446D01*
X1037160D01*
X1037560Y720046D01*
D02*
G37*
G36*
X1029053D02*
Y715446D01*
X1028653Y715046D01*
X1023647D01*
X1023247Y715446D01*
Y720046D01*
X1023647Y720446D01*
X1028653D01*
X1029053Y720046D01*
D02*
G37*
G36*
X1410784Y718674D02*
Y714174D01*
X1410283Y713674D01*
X1405483D01*
X1404784Y714174D01*
Y718674D01*
X1405483Y719174D01*
X1410283D01*
X1410784Y718674D01*
D02*
G37*
G36*
X1401183D02*
Y714174D01*
X1400483Y713674D01*
X1395683D01*
X1395183Y714174D01*
Y718674D01*
X1395683Y719174D01*
X1400483D01*
X1401183Y718674D01*
D02*
G37*
G36*
X714959Y718302D02*
Y713802D01*
X714459Y713302D01*
X709659D01*
X708959Y713802D01*
Y718302D01*
X709659Y718802D01*
X714459D01*
X714959Y718302D01*
D02*
G37*
G36*
X705359D02*
Y713802D01*
X704659Y713302D01*
X699859D01*
X699359Y713802D01*
Y718302D01*
X699859Y718802D01*
X704659D01*
X705359Y718302D01*
D02*
G37*
G36*
X1091058Y717101D02*
Y716535D01*
X1087517Y712995D01*
X1086952D01*
X1083699Y716247D01*
Y716813D01*
X1087239Y720353D01*
X1087805D01*
X1091058Y717101D01*
D02*
G37*
G36*
X1128956Y714482D02*
Y714142D01*
X1126627Y711813D01*
X1126288D01*
X1124336Y713764D01*
Y714104D01*
X1126665Y716433D01*
X1127005D01*
X1128956Y714482D01*
D02*
G37*
G36*
X1111443Y713975D02*
Y713636D01*
X1109491Y711684D01*
X1109152D01*
X1106822Y714014D01*
Y714353D01*
X1108774Y716305D01*
X1109113D01*
X1111443Y713975D01*
D02*
G37*
G36*
X839280Y715990D02*
Y711490D01*
X838780Y710990D01*
X833979D01*
X833280Y711490D01*
Y715990D01*
X833979Y716490D01*
X838780D01*
X839280Y715990D01*
D02*
G37*
G36*
X829680D02*
Y711490D01*
X828979Y710990D01*
X824180D01*
X823680Y711490D01*
Y715990D01*
X824180Y716490D01*
X828979D01*
X829680Y715990D01*
D02*
G37*
G36*
X1097434Y711946D02*
Y711607D01*
X1095105Y709277D01*
X1094765D01*
X1092814Y711229D01*
Y711569D01*
X1095143Y713898D01*
X1095483D01*
X1097434Y711946D01*
D02*
G37*
G36*
X808431Y713159D02*
Y708559D01*
X808031Y708159D01*
X803025D01*
X802625Y708559D01*
Y713159D01*
X803025Y713559D01*
X808031D01*
X808431Y713159D01*
D02*
G37*
G36*
X799925D02*
Y708559D01*
X799525Y708159D01*
X794519D01*
X794118Y708559D01*
Y713159D01*
X794519Y713559D01*
X799525D01*
X799925Y713159D01*
D02*
G37*
G36*
X1125142Y710667D02*
Y710328D01*
X1122812Y707998D01*
X1122473D01*
X1120521Y709950D01*
Y710289D01*
X1122851Y712619D01*
X1123190D01*
X1125142Y710667D01*
D02*
G37*
G36*
X1163691Y710043D02*
Y709704D01*
X1161740Y707752D01*
X1161400D01*
X1159071Y710081D01*
Y710421D01*
X1161022Y712373D01*
X1161362D01*
X1163691Y710043D01*
D02*
G37*
G36*
X1140083Y711637D02*
X1140083Y710930D01*
X1136689Y707536D01*
X1135841Y707395D01*
X1132659Y710577D01*
X1132800Y711425D01*
X1136194Y714819D01*
X1136901Y714819D01*
X1140083Y711637D01*
D02*
G37*
G36*
X1085043Y711086D02*
Y710520D01*
X1081503Y706980D01*
X1080937D01*
X1077684Y710232D01*
Y710798D01*
X1081224Y714338D01*
X1081790D01*
X1085043Y711086D01*
D02*
G37*
G36*
X1065834Y711795D02*
Y707195D01*
X1065434Y706795D01*
X1060427D01*
X1060027Y707195D01*
Y711795D01*
X1060427Y712195D01*
X1065434D01*
X1065834Y711795D01*
D02*
G37*
G36*
X1057327D02*
Y707195D01*
X1056927Y706795D01*
X1051921D01*
X1051521Y707195D01*
Y711795D01*
X1051921Y712195D01*
X1056927D01*
X1057327Y711795D01*
D02*
G37*
G36*
X1116537Y708708D02*
Y708369D01*
X1114586Y706417D01*
X1114247D01*
X1111917Y708747D01*
Y709086D01*
X1113869Y711038D01*
X1114208D01*
X1116537Y708708D01*
D02*
G37*
G36*
X1093620Y708132D02*
Y707793D01*
X1091290Y705463D01*
X1090951D01*
X1088999Y707415D01*
Y707754D01*
X1091329Y710083D01*
X1091668D01*
X1093620Y708132D01*
D02*
G37*
G36*
X1329632Y709985D02*
Y705484D01*
X1329132Y704985D01*
X1324332D01*
X1323632Y705484D01*
Y709985D01*
X1324332Y710484D01*
X1329132D01*
X1329632Y709985D01*
D02*
G37*
G36*
X1320032D02*
Y705484D01*
X1319332Y704985D01*
X1314532D01*
X1314032Y705484D01*
Y709985D01*
X1314532Y710484D01*
X1319332D01*
X1320032Y709985D01*
D02*
G37*
G36*
X1350599Y709905D02*
Y705405D01*
X1350099Y704905D01*
X1345299D01*
X1344599Y705405D01*
Y709905D01*
X1345299Y710405D01*
X1350099D01*
X1350599Y709905D01*
D02*
G37*
G36*
X1340999D02*
Y705405D01*
X1340299Y704905D01*
X1335499D01*
X1334999Y705405D01*
Y709905D01*
X1335499Y710405D01*
X1340299D01*
X1340999Y709905D01*
D02*
G37*
G36*
X1370742Y709788D02*
Y705288D01*
X1370242Y704788D01*
X1365442D01*
X1364742Y705288D01*
Y709788D01*
X1365442Y710288D01*
X1370242D01*
X1370742Y709788D01*
D02*
G37*
G36*
X1361141D02*
Y705288D01*
X1360442Y704788D01*
X1355641D01*
X1355141Y705288D01*
Y709788D01*
X1355641Y710288D01*
X1360442D01*
X1361141Y709788D01*
D02*
G37*
G36*
X1167506Y706229D02*
Y705889D01*
X1165554Y703938D01*
X1165215D01*
X1162885Y706267D01*
Y706607D01*
X1164837Y708558D01*
X1165176D01*
X1167506Y706229D01*
D02*
G37*
G36*
X1120352Y704894D02*
Y704554D01*
X1118400Y702603D01*
X1118061D01*
X1115732Y704932D01*
Y705272D01*
X1117683Y707223D01*
X1118023D01*
X1120352Y704894D01*
D02*
G37*
G36*
X1158159Y704656D02*
Y704317D01*
X1156207Y702365D01*
X1155868D01*
X1153538Y704695D01*
Y705034D01*
X1155490Y706986D01*
X1155829D01*
X1158159Y704656D01*
D02*
G37*
G36*
X1304383Y707850D02*
Y703050D01*
X1303883Y702350D01*
X1299383D01*
X1298883Y703050D01*
Y707850D01*
X1299383Y708350D01*
X1303883D01*
X1304383Y707850D01*
D02*
G37*
G36*
X1147611Y704970D02*
Y704630D01*
X1145282Y702301D01*
X1144943D01*
X1142991Y704252D01*
Y704592D01*
X1145320Y706921D01*
X1145660D01*
X1147611Y704970D01*
D02*
G37*
G36*
X1101379Y704031D02*
Y703692D01*
X1099427Y701740D01*
X1099088D01*
X1096759Y704070D01*
Y704409D01*
X1098710Y706361D01*
X1099050D01*
X1101379Y704031D01*
D02*
G37*
G36*
X1133295Y704849D02*
X1133154Y704001D01*
X1129760Y700607D01*
X1129052Y700606D01*
X1125870Y703788D01*
X1125871Y704495D01*
X1129265Y707890D01*
X1130113Y708031D01*
X1133295Y704849D01*
D02*
G37*
G36*
X1161973Y700842D02*
Y700502D01*
X1160022Y698551D01*
X1159682D01*
X1157353Y700880D01*
Y701220D01*
X1159304Y703171D01*
X1159644D01*
X1161973Y700842D01*
D02*
G37*
G36*
X1143797Y701155D02*
Y700816D01*
X1141468Y698486D01*
X1141128D01*
X1139176Y700438D01*
Y700777D01*
X1141506Y703107D01*
X1141845D01*
X1143797Y701155D01*
D02*
G37*
G36*
X1066343Y703110D02*
Y698610D01*
X1065843Y698110D01*
X1061043D01*
X1060343Y698610D01*
Y703110D01*
X1061043Y703610D01*
X1065843D01*
X1066343Y703110D01*
D02*
G37*
G36*
X1056743D02*
Y698610D01*
X1056043Y698110D01*
X1051243D01*
X1050743Y698610D01*
Y703110D01*
X1051243Y703610D01*
X1056043D01*
X1056743Y703110D01*
D02*
G37*
G36*
X1105194Y700217D02*
Y699877D01*
X1103242Y697926D01*
X1102903D01*
X1100573Y700255D01*
Y700595D01*
X1102525Y702546D01*
X1102864D01*
X1105194Y700217D01*
D02*
G37*
G36*
X809459Y702871D02*
Y698371D01*
X808959Y697871D01*
X804159D01*
X803459Y698371D01*
Y702871D01*
X804159Y703371D01*
X808959D01*
X809459Y702871D01*
D02*
G37*
G36*
X799859D02*
Y698371D01*
X799159Y697871D01*
X794359D01*
X793859Y698371D01*
Y702871D01*
X794359Y703371D01*
X799159D01*
X799859Y702871D01*
D02*
G37*
G36*
X1116185Y700214D02*
Y699874D01*
X1113856Y697545D01*
X1113516D01*
X1111564Y699496D01*
Y699836D01*
X1113894Y702165D01*
X1114233D01*
X1116185Y700214D01*
D02*
G37*
G36*
X1152513Y699784D02*
Y699445D01*
X1150183Y697116D01*
X1149844D01*
X1147892Y699067D01*
Y699407D01*
X1150222Y701736D01*
X1150561D01*
X1152513Y699784D01*
D02*
G37*
G36*
X1125225Y699377D02*
Y699037D01*
X1122895Y696708D01*
X1122556D01*
X1120604Y698659D01*
Y698999D01*
X1122934Y701328D01*
X1123273D01*
X1125225Y699377D01*
D02*
G37*
G36*
X1289926Y700979D02*
Y696479D01*
X1289426Y695979D01*
X1284626D01*
X1283926Y696479D01*
Y700979D01*
X1284626Y701479D01*
X1289426D01*
X1289926Y700979D01*
D02*
G37*
G36*
X1280326D02*
Y696479D01*
X1279626Y695979D01*
X1274826D01*
X1274326Y696479D01*
Y700979D01*
X1274826Y701479D01*
X1279626D01*
X1280326Y700979D01*
D02*
G37*
G36*
X1352054Y699374D02*
Y694874D01*
X1351554Y694374D01*
X1346754D01*
X1346054Y694874D01*
Y699374D01*
X1346754Y699874D01*
X1351554D01*
X1352054Y699374D01*
D02*
G37*
G36*
X1342454D02*
Y694874D01*
X1341754Y694374D01*
X1336954D01*
X1336454Y694874D01*
Y699374D01*
X1336954Y699874D01*
X1341754D01*
X1342454Y699374D01*
D02*
G37*
G36*
X1112371Y696399D02*
Y696060D01*
X1110041Y693730D01*
X1109702D01*
X1107750Y695682D01*
Y696021D01*
X1110079Y698351D01*
X1110419D01*
X1112371Y696399D01*
D02*
G37*
G36*
X1148698Y695970D02*
Y695631D01*
X1146369Y693301D01*
X1146029D01*
X1144078Y695253D01*
Y695592D01*
X1146407Y697922D01*
X1146747D01*
X1148698Y695970D01*
D02*
G37*
G36*
X1121410Y695562D02*
Y695223D01*
X1119081Y692893D01*
X1118741D01*
X1116790Y694845D01*
Y695184D01*
X1119119Y697514D01*
X1119458D01*
X1121410Y695562D01*
D02*
G37*
G36*
X1304383Y698050D02*
Y693250D01*
X1303883Y692750D01*
X1299383D01*
X1298883Y693250D01*
Y698050D01*
X1299383Y698750D01*
X1303883D01*
X1304383Y698050D01*
D02*
G37*
G36*
X1331029Y697700D02*
Y693200D01*
X1330529Y692700D01*
X1325729D01*
X1325029Y693200D01*
Y697700D01*
X1325729Y698200D01*
X1330529D01*
X1331029Y697700D01*
D02*
G37*
G36*
X1321429D02*
Y693200D01*
X1320729Y692700D01*
X1315929D01*
X1315429Y693200D01*
Y697700D01*
X1315929Y698200D01*
X1320729D01*
X1321429Y697700D01*
D02*
G37*
G36*
X634761Y697655D02*
Y692855D01*
X634261Y692155D01*
X629761D01*
X629261Y692855D01*
Y697655D01*
X629761Y698155D01*
X634261D01*
X634761Y697655D01*
D02*
G37*
G36*
X1382809Y696221D02*
Y691721D01*
X1382309Y691221D01*
X1377509D01*
X1376809Y691721D01*
Y696221D01*
X1377509Y696721D01*
X1382309D01*
X1382809Y696221D01*
D02*
G37*
G36*
X1373209D02*
Y691721D01*
X1372509Y691221D01*
X1367709D01*
X1367209Y691721D01*
Y696221D01*
X1367709Y696721D01*
X1372509D01*
X1373209Y696221D01*
D02*
G37*
G36*
X675602Y696330D02*
Y691530D01*
X675102Y690830D01*
X670602D01*
X670102Y691530D01*
Y696330D01*
X670602Y696830D01*
X675102D01*
X675602Y696330D01*
D02*
G37*
G36*
X1130453Y693132D02*
Y692793D01*
X1128123Y690463D01*
X1127784D01*
X1125833Y692415D01*
Y692755D01*
X1128162Y695084D01*
X1128501D01*
X1130453Y693132D01*
D02*
G37*
G36*
X1139191Y690795D02*
Y690455D01*
X1137239Y688504D01*
X1136899D01*
X1134570Y690833D01*
Y691173D01*
X1136522Y693124D01*
X1136861D01*
X1139191Y690795D01*
D02*
G37*
G36*
X808583Y692655D02*
Y688055D01*
X808183Y687655D01*
X803176D01*
X802776Y688055D01*
Y692655D01*
X803176Y693055D01*
X808183D01*
X808583Y692655D01*
D02*
G37*
G36*
X800076D02*
Y688055D01*
X799676Y687655D01*
X794670D01*
X794270Y688055D01*
Y692655D01*
X794670Y693055D01*
X799676D01*
X800076Y692655D01*
D02*
G37*
G36*
X1126638Y689318D02*
Y688979D01*
X1124309Y686649D01*
X1123970D01*
X1122018Y688601D01*
Y688940D01*
X1124348Y691270D01*
X1124687D01*
X1126638Y689318D01*
D02*
G37*
G36*
X1143005Y686981D02*
Y686641D01*
X1141053Y684689D01*
X1140714D01*
X1138384Y687019D01*
Y687358D01*
X1140336Y689310D01*
X1140676D01*
X1143005Y686981D01*
D02*
G37*
G36*
X882533Y689574D02*
Y684974D01*
X882133Y684574D01*
X877127D01*
X876727Y684974D01*
Y689574D01*
X877127Y689974D01*
X882133D01*
X882533Y689574D01*
D02*
G37*
G36*
X874027D02*
Y684974D01*
X873627Y684574D01*
X868621D01*
X868220Y684974D01*
Y689574D01*
X868621Y689974D01*
X873627D01*
X874027Y689574D01*
D02*
G37*
G36*
X634761Y687855D02*
Y683055D01*
X634261Y682555D01*
X629761D01*
X629261Y683055D01*
Y687855D01*
X629761Y688555D01*
X634261D01*
X634761Y687855D01*
D02*
G37*
G36*
X675602Y686530D02*
Y681730D01*
X675102Y681230D01*
X670602D01*
X670102Y681730D01*
Y686530D01*
X670602Y687230D01*
X675102D01*
X675602Y686530D01*
D02*
G37*
G36*
X1328924Y686236D02*
Y681436D01*
X1328424Y680736D01*
X1323924D01*
X1323424Y681436D01*
Y686236D01*
X1323924Y686736D01*
X1328424D01*
X1328924Y686236D01*
D02*
G37*
G36*
X1086030Y685510D02*
Y681010D01*
X1085530Y680510D01*
X1080730D01*
X1080030Y681010D01*
Y685510D01*
X1080730Y686010D01*
X1085530D01*
X1086030Y685510D01*
D02*
G37*
G36*
X1076430D02*
Y681010D01*
X1075730Y680510D01*
X1070930D01*
X1070430Y681010D01*
Y685510D01*
X1070930Y686010D01*
X1075730D01*
X1076430Y685510D01*
D02*
G37*
G36*
X1319431Y685654D02*
Y680854D01*
X1318932Y680154D01*
X1314431D01*
X1313932Y680854D01*
Y685654D01*
X1314431Y686154D01*
X1318932D01*
X1319431Y685654D01*
D02*
G37*
G36*
X1350063Y683950D02*
Y679450D01*
X1349563Y678950D01*
X1344763D01*
X1344063Y679450D01*
Y683950D01*
X1344763Y684450D01*
X1349563D01*
X1350063Y683950D01*
D02*
G37*
G36*
X1340463D02*
Y679450D01*
X1339763Y678950D01*
X1334963D01*
X1334463Y679450D01*
Y683950D01*
X1334963Y684450D01*
X1339763D01*
X1340463Y683950D01*
D02*
G37*
G36*
X1370927Y683687D02*
Y679187D01*
X1370427Y678687D01*
X1365627D01*
X1364927Y679187D01*
Y683687D01*
X1365627Y684187D01*
X1370427D01*
X1370927Y683687D01*
D02*
G37*
G36*
X1361327D02*
Y679187D01*
X1360627Y678687D01*
X1355827D01*
X1355327Y679187D01*
Y683687D01*
X1355827Y684187D01*
X1360627D01*
X1361327Y683687D01*
D02*
G37*
G36*
X1304125Y681558D02*
Y676758D01*
X1303625Y676058D01*
X1299125D01*
X1298625Y676758D01*
Y681558D01*
X1299125Y682058D01*
X1303625D01*
X1304125Y681558D01*
D02*
G37*
G36*
X759223Y680781D02*
Y676181D01*
X758823Y675781D01*
X753817D01*
X753417Y676181D01*
Y680781D01*
X753817Y681181D01*
X758823D01*
X759223Y680781D01*
D02*
G37*
G36*
X750717D02*
Y676181D01*
X750317Y675781D01*
X745311D01*
X744911Y676181D01*
Y680781D01*
X745311Y681181D01*
X750317D01*
X750717Y680781D01*
D02*
G37*
G36*
X883039Y679561D02*
Y675061D01*
X882539Y674561D01*
X877740D01*
X877039Y675061D01*
Y679561D01*
X877740Y680061D01*
X882539D01*
X883039Y679561D01*
D02*
G37*
G36*
X873439D02*
Y675061D01*
X872740Y674561D01*
X867940D01*
X867439Y675061D01*
Y679561D01*
X867940Y680061D01*
X872740D01*
X873439Y679561D01*
D02*
G37*
G36*
X1328924Y676436D02*
Y671636D01*
X1328424Y671136D01*
X1323924D01*
X1323424Y671636D01*
Y676436D01*
X1323924Y677136D01*
X1328424D01*
X1328924Y676436D01*
D02*
G37*
G36*
X1319431Y675854D02*
Y671055D01*
X1318932Y670554D01*
X1314431D01*
X1313932Y671055D01*
Y675854D01*
X1314431Y676554D01*
X1318932D01*
X1319431Y675854D01*
D02*
G37*
G36*
X695649Y671495D02*
Y666895D01*
X695249Y666495D01*
X690242D01*
X689842Y666895D01*
Y671495D01*
X690242Y671895D01*
X695249D01*
X695649Y671495D01*
D02*
G37*
G36*
X687142D02*
Y666895D01*
X686742Y666495D01*
X681736D01*
X681336Y666895D01*
Y671495D01*
X681736Y671895D01*
X686742D01*
X687142Y671495D01*
D02*
G37*
G36*
X1304125Y671758D02*
Y666958D01*
X1303625Y666458D01*
X1299125D01*
X1298625Y666958D01*
Y671758D01*
X1299125Y672458D01*
X1303625D01*
X1304125Y671758D01*
D02*
G37*
G36*
X759317Y670323D02*
Y665723D01*
X758917Y665323D01*
X753911D01*
X753510Y665723D01*
Y670323D01*
X753911Y670723D01*
X758917D01*
X759317Y670323D01*
D02*
G37*
G36*
X750810D02*
Y665723D01*
X750410Y665323D01*
X745404D01*
X745004Y665723D01*
Y670323D01*
X745404Y670723D01*
X750410D01*
X750810Y670323D01*
D02*
G37*
G36*
X798252Y670033D02*
Y665234D01*
X797752Y664534D01*
X793252D01*
X792752Y665234D01*
Y670033D01*
X793252Y670534D01*
X797752D01*
X798252Y670033D01*
D02*
G37*
G36*
X695664Y661071D02*
Y656471D01*
X695264Y656071D01*
X690257D01*
X689857Y656471D01*
Y661071D01*
X690257Y661471D01*
X695264D01*
X695664Y661071D01*
D02*
G37*
G36*
X687157D02*
Y656471D01*
X686757Y656071D01*
X681751D01*
X681351Y656471D01*
Y661071D01*
X681751Y661471D01*
X686757D01*
X687157Y661071D01*
D02*
G37*
G36*
X760363Y659947D02*
Y655447D01*
X759863Y654947D01*
X755063D01*
X754363Y655447D01*
Y659947D01*
X755063Y660447D01*
X759863D01*
X760363Y659947D01*
D02*
G37*
G36*
X750763D02*
Y655447D01*
X750063Y654947D01*
X745263D01*
X744763Y655447D01*
Y659947D01*
X745263Y660447D01*
X750063D01*
X750763Y659947D01*
D02*
G37*
G36*
X798252Y660234D02*
Y655434D01*
X797752Y654933D01*
X793252D01*
X792752Y655434D01*
Y660234D01*
X793252Y660933D01*
X797752D01*
X798252Y660234D01*
D02*
G37*
G36*
X884360Y658875D02*
Y654374D01*
X883860Y653875D01*
X879061D01*
X878360Y654374D01*
Y658875D01*
X879061Y659374D01*
X883860D01*
X884360Y658875D01*
D02*
G37*
G36*
X874760D02*
Y654374D01*
X874061Y653875D01*
X869260D01*
X868760Y654374D01*
Y658875D01*
X869260Y659374D01*
X874061D01*
X874760Y658875D01*
D02*
G37*
G36*
X696396Y651196D02*
Y646695D01*
X695896Y646196D01*
X691097D01*
X690396Y646695D01*
Y651196D01*
X691097Y651695D01*
X695896D01*
X696396Y651196D01*
D02*
G37*
G36*
X686796D02*
Y646695D01*
X686097Y646196D01*
X681296D01*
X680796Y646695D01*
Y651196D01*
X681296Y651695D01*
X686097D01*
X686796Y651196D01*
D02*
G37*
G36*
X884100Y645855D02*
Y641355D01*
X883600Y640855D01*
X878800D01*
X878100Y641355D01*
Y645855D01*
X878800Y646355D01*
X883600D01*
X884100Y645855D01*
D02*
G37*
G36*
X874500D02*
Y641355D01*
X873800Y640855D01*
X869000D01*
X868500Y641355D01*
Y645855D01*
X869000Y646355D01*
X873800D01*
X874500Y645855D01*
D02*
G37*
G36*
X744073Y645816D02*
Y641016D01*
X743573Y640316D01*
X739073D01*
X738573Y641016D01*
Y645816D01*
X739073Y646316D01*
X743573D01*
X744073Y645816D01*
D02*
G37*
G36*
X1301286Y641110D02*
Y636510D01*
X1300886Y636110D01*
X1295880D01*
X1295480Y636510D01*
Y641110D01*
X1295880Y641510D01*
X1300886D01*
X1301286Y641110D01*
D02*
G37*
G36*
X1292780D02*
Y636510D01*
X1292380Y636110D01*
X1287374D01*
X1286974Y636510D01*
Y641110D01*
X1287374Y641510D01*
X1292380D01*
X1292780Y641110D01*
D02*
G37*
G36*
X744073Y636016D02*
Y631216D01*
X743573Y630715D01*
X739073D01*
X738573Y631216D01*
Y636016D01*
X739073Y636716D01*
X743573D01*
X744073Y636016D01*
D02*
G37*
G36*
X1213240Y632747D02*
Y630827D01*
X1213000Y630587D01*
X1211080D01*
X1210841Y630827D01*
Y632747D01*
X1211080Y632987D01*
X1213000D01*
X1213240Y632747D01*
D02*
G37*
G36*
X1208240D02*
Y630827D01*
X1208000Y630587D01*
X1206080D01*
X1205841Y630827D01*
Y632747D01*
X1206080Y632987D01*
X1208000D01*
X1208240Y632747D01*
D02*
G37*
G36*
X1203240D02*
Y630827D01*
X1203000Y630587D01*
X1201080D01*
X1200841Y630827D01*
Y632747D01*
X1201080Y632987D01*
X1203000D01*
X1203240Y632747D01*
D02*
G37*
G36*
X1198239D02*
Y630827D01*
X1197999Y630587D01*
X1196079D01*
X1195839Y630827D01*
Y632747D01*
X1196079Y632987D01*
X1197999D01*
X1198239Y632747D01*
D02*
G37*
G36*
X1193239D02*
Y630827D01*
X1192999Y630587D01*
X1191079D01*
X1190839Y630827D01*
Y632747D01*
X1191079Y632987D01*
X1192999D01*
X1193239Y632747D01*
D02*
G37*
G36*
X1188239D02*
Y630827D01*
X1187999Y630587D01*
X1186079D01*
X1185839Y630827D01*
Y632747D01*
X1186079Y632987D01*
X1187999D01*
X1188239Y632747D01*
D02*
G37*
G36*
X1183239D02*
Y630827D01*
X1182999Y630587D01*
X1181079D01*
X1180839Y630827D01*
Y632747D01*
X1181079Y632987D01*
X1182999D01*
X1183239Y632747D01*
D02*
G37*
G36*
X1178239D02*
Y630827D01*
X1177999Y630587D01*
X1176079D01*
X1175839Y630827D01*
Y632747D01*
X1176079Y632987D01*
X1177999D01*
X1178239Y632747D01*
D02*
G37*
G36*
X1173239D02*
Y630827D01*
X1172999Y630587D01*
X1171079D01*
X1170839Y630827D01*
Y632747D01*
X1171079Y632987D01*
X1172999D01*
X1173239Y632747D01*
D02*
G37*
G36*
X1168239D02*
Y630827D01*
X1167999Y630587D01*
X1166079D01*
X1165839Y630827D01*
Y632747D01*
X1166079Y632987D01*
X1167999D01*
X1168239Y632747D01*
D02*
G37*
G36*
X1163239D02*
Y630827D01*
X1162999Y630587D01*
X1161079D01*
X1160839Y630827D01*
Y632747D01*
X1161079Y632987D01*
X1162999D01*
X1163239Y632747D01*
D02*
G37*
G36*
X1158239D02*
Y630827D01*
X1157999Y630587D01*
X1156079D01*
X1155839Y630827D01*
Y632747D01*
X1156079Y632987D01*
X1157999D01*
X1158239Y632747D01*
D02*
G37*
G36*
X1153239D02*
Y630827D01*
X1152999Y630587D01*
X1151079D01*
X1150839Y630827D01*
Y632747D01*
X1151079Y632987D01*
X1152999D01*
X1153239Y632747D01*
D02*
G37*
G36*
X1148239D02*
Y630827D01*
X1147999Y630587D01*
X1146079D01*
X1145839Y630827D01*
Y632747D01*
X1146079Y632987D01*
X1147999D01*
X1148239Y632747D01*
D02*
G37*
G36*
X901238Y635181D02*
Y630681D01*
X900738Y630181D01*
X895938D01*
X895238Y630681D01*
Y635181D01*
X895938Y635681D01*
X900738D01*
X901238Y635181D01*
D02*
G37*
G36*
X891638D02*
Y630681D01*
X890938Y630181D01*
X886138D01*
X885638Y630681D01*
Y635181D01*
X886138Y635681D01*
X890938D01*
X891638Y635181D01*
D02*
G37*
G36*
X793264Y634670D02*
X793272Y634366D01*
X793272Y628465D01*
X793272Y628465D01*
X793264Y628160D01*
X792827Y627734D01*
X792217D01*
X791780Y628160D01*
X791772Y628465D01*
Y628465D01*
Y634366D01*
X791780Y634670D01*
X792217Y635096D01*
X792827D01*
X793264Y634670D01*
D02*
G37*
G36*
X782766Y634672D02*
X782772Y634366D01*
Y628465D01*
Y628465D01*
X782766Y628159D01*
X782328Y627729D01*
X781715D01*
X781278Y628159D01*
X781272Y628465D01*
X781272Y628465D01*
Y634366D01*
X781272D01*
X781278Y634672D01*
X781715Y635102D01*
X782328D01*
X782766Y634672D01*
D02*
G37*
G36*
X786272Y634676D02*
Y634366D01*
Y628465D01*
Y628155D01*
X785833Y627715D01*
X785211D01*
X784772Y628155D01*
Y628465D01*
Y634366D01*
Y634676D01*
X785211Y635116D01*
X785833D01*
X786272Y634676D01*
D02*
G37*
G36*
X779272D02*
Y634366D01*
Y628465D01*
Y628155D01*
X778833Y627715D01*
X778211D01*
X777772Y628155D01*
Y628465D01*
Y634366D01*
Y634676D01*
X778211Y635116D01*
X778833D01*
X779272Y634676D01*
D02*
G37*
G36*
X807273Y634676D02*
Y634365D01*
Y628465D01*
Y628154D01*
X806833Y627715D01*
X806212D01*
X805773Y628154D01*
Y628465D01*
Y634365D01*
Y634676D01*
X806212Y635115D01*
X806833D01*
X807273Y634676D01*
D02*
G37*
G36*
X803773D02*
Y634365D01*
Y628465D01*
Y628154D01*
X803334Y627715D01*
X802713D01*
X802273Y628154D01*
Y628465D01*
Y634365D01*
Y634676D01*
X802713Y635115D01*
X803334D01*
X803773Y634676D01*
D02*
G37*
G36*
X796772Y634676D02*
Y634366D01*
Y628465D01*
Y628154D01*
X796333Y627715D01*
X795711D01*
X795272Y628154D01*
Y628465D01*
Y634366D01*
Y634676D01*
X795711Y635116D01*
X796333D01*
X796772Y634676D01*
D02*
G37*
G36*
X789772D02*
Y634366D01*
Y628465D01*
Y628154D01*
X789333Y627715D01*
X788711D01*
X788272Y628154D01*
Y628465D01*
Y634366D01*
Y634676D01*
X788711Y635116D01*
X789333D01*
X789772Y634676D01*
D02*
G37*
G36*
X800273Y634676D02*
Y634365D01*
Y628465D01*
Y628154D01*
X799834Y627715D01*
X799212D01*
X798773Y628154D01*
Y628465D01*
Y634365D01*
Y634676D01*
X799212Y635115D01*
X799834D01*
X800273Y634676D01*
D02*
G37*
G36*
X828274Y634676D02*
Y634365D01*
Y628465D01*
Y628154D01*
X827834Y627715D01*
X827213D01*
X826774Y628154D01*
Y628465D01*
Y634365D01*
Y634676D01*
X827213Y635115D01*
X827834D01*
X828274Y634676D01*
D02*
G37*
G36*
X824774D02*
Y634365D01*
Y628465D01*
Y628154D01*
X824334Y627715D01*
X823713D01*
X823274Y628154D01*
Y628465D01*
Y634365D01*
Y634676D01*
X823713Y635115D01*
X824334D01*
X824774Y634676D01*
D02*
G37*
G36*
X821274D02*
Y634365D01*
Y628465D01*
Y628154D01*
X820834Y627715D01*
X820213D01*
X819773Y628154D01*
Y628465D01*
Y634365D01*
Y634676D01*
X820213Y635115D01*
X820834D01*
X821274Y634676D01*
D02*
G37*
G36*
X817774D02*
Y634365D01*
Y628465D01*
Y628154D01*
X817334Y627715D01*
X816713D01*
X816273Y628154D01*
Y628465D01*
Y634365D01*
Y634676D01*
X816713Y635115D01*
X817334D01*
X817774Y634676D01*
D02*
G37*
G36*
X814273D02*
Y634365D01*
Y628465D01*
Y628154D01*
X813834Y627715D01*
X813212D01*
X812773Y628154D01*
Y628465D01*
Y634365D01*
Y634676D01*
X813212Y635115D01*
X813834D01*
X814273Y634676D01*
D02*
G37*
G36*
X810773D02*
Y634365D01*
Y628465D01*
Y628154D01*
X810334Y627715D01*
X809712D01*
X809273Y628154D01*
Y628465D01*
Y634365D01*
Y634676D01*
X809712Y635115D01*
X810334D01*
X810773Y634676D01*
D02*
G37*
G36*
X775772D02*
Y634365D01*
Y628465D01*
Y628154D01*
X775332Y627715D01*
X774711D01*
X774272Y628154D01*
Y628465D01*
Y634365D01*
Y634676D01*
X774711Y635115D01*
X775332D01*
X775772Y634676D01*
D02*
G37*
G36*
X772272D02*
Y634365D01*
Y628465D01*
Y628154D01*
X771832Y627715D01*
X771211D01*
X770772Y628154D01*
Y628465D01*
Y634365D01*
Y634676D01*
X771211Y635115D01*
X771832D01*
X772272Y634676D01*
D02*
G37*
G36*
X1302353Y631549D02*
Y627049D01*
X1301853Y626549D01*
X1297053D01*
X1296353Y627049D01*
Y631549D01*
X1297053Y632049D01*
X1301853D01*
X1302353Y631549D01*
D02*
G37*
G36*
X1292753D02*
Y627049D01*
X1292053Y626549D01*
X1287253D01*
X1286753Y627049D01*
Y631549D01*
X1287253Y632049D01*
X1292053D01*
X1292753Y631549D01*
D02*
G37*
G36*
X1213240Y627746D02*
Y625826D01*
X1213000Y625586D01*
X1211080D01*
X1210841Y625826D01*
Y627746D01*
X1211080Y627985D01*
X1213000D01*
X1213240Y627746D01*
D02*
G37*
G36*
X1208240D02*
Y625826D01*
X1208000Y625586D01*
X1206080D01*
X1205841Y625826D01*
Y627746D01*
X1206080Y627985D01*
X1208000D01*
X1208240Y627746D01*
D02*
G37*
G36*
X1203240D02*
Y625826D01*
X1203000Y625586D01*
X1201080D01*
X1200841Y625826D01*
Y627746D01*
X1201080Y627985D01*
X1203000D01*
X1203240Y627746D01*
D02*
G37*
G36*
X1198239D02*
Y625826D01*
X1197999Y625586D01*
X1196079D01*
X1195839Y625826D01*
Y627746D01*
X1196079Y627985D01*
X1197999D01*
X1198239Y627746D01*
D02*
G37*
G36*
X1193239D02*
Y625826D01*
X1192999Y625586D01*
X1191079D01*
X1190839Y625826D01*
Y627746D01*
X1191079Y627985D01*
X1192999D01*
X1193239Y627746D01*
D02*
G37*
G36*
X1188239D02*
Y625826D01*
X1187999Y625586D01*
X1186079D01*
X1185839Y625826D01*
Y627746D01*
X1186079Y627985D01*
X1187999D01*
X1188239Y627746D01*
D02*
G37*
G36*
X1183239D02*
Y625826D01*
X1182999Y625586D01*
X1181079D01*
X1180839Y625826D01*
Y627746D01*
X1181079Y627985D01*
X1182999D01*
X1183239Y627746D01*
D02*
G37*
G36*
X1178239D02*
Y625826D01*
X1177999Y625586D01*
X1176079D01*
X1175839Y625826D01*
Y627746D01*
X1176079Y627985D01*
X1177999D01*
X1178239Y627746D01*
D02*
G37*
G36*
X1173239D02*
Y625826D01*
X1172999Y625586D01*
X1171079D01*
X1170839Y625826D01*
Y627746D01*
X1171079Y627985D01*
X1172999D01*
X1173239Y627746D01*
D02*
G37*
G36*
X1168239D02*
Y625826D01*
X1167999Y625586D01*
X1166079D01*
X1165839Y625826D01*
Y627746D01*
X1166079Y627985D01*
X1167999D01*
X1168239Y627746D01*
D02*
G37*
G36*
X1163239D02*
Y625826D01*
X1162999Y625586D01*
X1161079D01*
X1160839Y625826D01*
Y627746D01*
X1161079Y627985D01*
X1162999D01*
X1163239Y627746D01*
D02*
G37*
G36*
X1158239D02*
Y625826D01*
X1157999Y625586D01*
X1156079D01*
X1155839Y625826D01*
Y627746D01*
X1156079Y627985D01*
X1157999D01*
X1158239Y627746D01*
D02*
G37*
G36*
X1153239D02*
Y625826D01*
X1152999Y625586D01*
X1151079D01*
X1150839Y625826D01*
Y627746D01*
X1151079Y627985D01*
X1152999D01*
X1153239Y627746D01*
D02*
G37*
G36*
X1148239D02*
Y625826D01*
X1147999Y625586D01*
X1146079D01*
X1145839Y625826D01*
Y627746D01*
X1146079Y627985D01*
X1147999D01*
X1148239Y627746D01*
D02*
G37*
G36*
X837298Y625653D02*
Y625032D01*
X836858Y624592D01*
X830337D01*
X829897Y625032D01*
Y625653D01*
X830337Y626092D01*
X836858D01*
X837298Y625653D01*
D02*
G37*
G36*
X769149Y625652D02*
Y625031D01*
X768710Y624591D01*
X762188D01*
X761749Y625031D01*
Y625652D01*
X762188Y626091D01*
X768710D01*
X769149Y625652D01*
D02*
G37*
G36*
X837298Y622153D02*
Y621532D01*
X836858Y621092D01*
X830337D01*
X829897Y621532D01*
Y622153D01*
X830337Y622593D01*
X836858D01*
X837298Y622153D01*
D02*
G37*
G36*
X769149Y622152D02*
Y621530D01*
X768710Y621091D01*
X762188D01*
X761749Y621530D01*
Y622152D01*
X762188Y622591D01*
X768710D01*
X769149Y622152D01*
D02*
G37*
G36*
X1213240Y622747D02*
Y620827D01*
X1213000Y620587D01*
X1211080D01*
X1210841Y620827D01*
Y622747D01*
X1211080Y622987D01*
X1213000D01*
X1213240Y622747D01*
D02*
G37*
G36*
X1208240D02*
Y620827D01*
X1208000Y620587D01*
X1206080D01*
X1205841Y620827D01*
Y622747D01*
X1206080Y622987D01*
X1208000D01*
X1208240Y622747D01*
D02*
G37*
G36*
X1203240D02*
Y620827D01*
X1203000Y620587D01*
X1201080D01*
X1200841Y620827D01*
Y622747D01*
X1201080Y622987D01*
X1203000D01*
X1203240Y622747D01*
D02*
G37*
G36*
X1198239D02*
Y620827D01*
X1197999Y620587D01*
X1196079D01*
X1195839Y620827D01*
Y622747D01*
X1196079Y622987D01*
X1197999D01*
X1198239Y622747D01*
D02*
G37*
G36*
X1193239D02*
Y620827D01*
X1192999Y620587D01*
X1191079D01*
X1190839Y620827D01*
Y622747D01*
X1191079Y622987D01*
X1192999D01*
X1193239Y622747D01*
D02*
G37*
G36*
X1188239D02*
Y620827D01*
X1187999Y620587D01*
X1186079D01*
X1185839Y620827D01*
Y622747D01*
X1186079Y622987D01*
X1187999D01*
X1188239Y622747D01*
D02*
G37*
G36*
X1183239D02*
Y620827D01*
X1182999Y620587D01*
X1181079D01*
X1180839Y620827D01*
Y622747D01*
X1181079Y622987D01*
X1182999D01*
X1183239Y622747D01*
D02*
G37*
G36*
X1178239D02*
Y620827D01*
X1177999Y620587D01*
X1176079D01*
X1175839Y620827D01*
Y622747D01*
X1176079Y622987D01*
X1177999D01*
X1178239Y622747D01*
D02*
G37*
G36*
X1173239D02*
Y620827D01*
X1172999Y620587D01*
X1171079D01*
X1170839Y620827D01*
Y622747D01*
X1171079Y622987D01*
X1172999D01*
X1173239Y622747D01*
D02*
G37*
G36*
X1168239D02*
Y620827D01*
X1167999Y620587D01*
X1166079D01*
X1165839Y620827D01*
Y622747D01*
X1166079Y622987D01*
X1167999D01*
X1168239Y622747D01*
D02*
G37*
G36*
X1163239D02*
Y620827D01*
X1162999Y620587D01*
X1161079D01*
X1160839Y620827D01*
Y622747D01*
X1161079Y622987D01*
X1162999D01*
X1163239Y622747D01*
D02*
G37*
G36*
X1158239D02*
Y620827D01*
X1157999Y620587D01*
X1156079D01*
X1155839Y620827D01*
Y622747D01*
X1156079Y622987D01*
X1157999D01*
X1158239Y622747D01*
D02*
G37*
G36*
X1153239D02*
Y620827D01*
X1152999Y620587D01*
X1151079D01*
X1150839Y620827D01*
Y622747D01*
X1151079Y622987D01*
X1152999D01*
X1153239Y622747D01*
D02*
G37*
G36*
X1148239D02*
Y620827D01*
X1147999Y620587D01*
X1146079D01*
X1145839Y620827D01*
Y622747D01*
X1146079Y622987D01*
X1147999D01*
X1148239Y622747D01*
D02*
G37*
G36*
X900314Y625246D02*
Y620646D01*
X899914Y620246D01*
X894908D01*
X894508Y620646D01*
Y625246D01*
X894908Y625646D01*
X899914D01*
X900314Y625246D01*
D02*
G37*
G36*
X891807D02*
Y620646D01*
X891407Y620246D01*
X886401D01*
X886001Y620646D01*
Y625246D01*
X886401Y625646D01*
X891407D01*
X891807Y625246D01*
D02*
G37*
G36*
X837299Y618653D02*
Y618031D01*
X836859Y617592D01*
X830337D01*
X829898Y618031D01*
Y618653D01*
X830337Y619092D01*
X836859D01*
X837299Y618653D01*
D02*
G37*
G36*
X769149Y618652D02*
Y618030D01*
X768710Y617591D01*
X762188D01*
X761749Y618030D01*
Y618652D01*
X762188Y619091D01*
X768710D01*
X769149Y618652D01*
D02*
G37*
G36*
X744241Y622872D02*
Y618072D01*
X743741Y617373D01*
X739241D01*
X738741Y618072D01*
Y622872D01*
X739241Y623372D01*
X743741D01*
X744241Y622872D01*
D02*
G37*
G36*
X1213240Y617746D02*
Y615826D01*
X1213000Y615586D01*
X1211080D01*
X1210841Y615826D01*
Y617746D01*
X1211080Y617985D01*
X1213000D01*
X1213240Y617746D01*
D02*
G37*
G36*
X1208239D02*
Y615826D01*
X1207999Y615586D01*
X1206079D01*
X1205839Y615826D01*
Y617746D01*
X1206079Y617985D01*
X1207999D01*
X1208239Y617746D01*
D02*
G37*
G36*
X1203240D02*
Y615826D01*
X1203000Y615586D01*
X1201080D01*
X1200841Y615826D01*
Y617746D01*
X1201080Y617985D01*
X1203000D01*
X1203240Y617746D01*
D02*
G37*
G36*
X1158239D02*
Y615826D01*
X1157999Y615586D01*
X1156079D01*
X1155839Y615826D01*
Y617746D01*
X1156079Y617985D01*
X1157999D01*
X1158239Y617746D01*
D02*
G37*
G36*
X1153240D02*
Y615826D01*
X1153001Y615586D01*
X1151080D01*
X1150841Y615826D01*
Y617746D01*
X1151080Y617985D01*
X1153001D01*
X1153240Y617746D01*
D02*
G37*
G36*
X1148239D02*
Y615826D01*
X1147999Y615586D01*
X1146079D01*
X1145839Y615826D01*
Y617746D01*
X1146079Y617985D01*
X1147999D01*
X1148239Y617746D01*
D02*
G37*
G36*
X836548Y615592D02*
X836855Y615587D01*
X837284Y615149D01*
Y614536D01*
X836855Y614098D01*
X836548Y614092D01*
X830648D01*
X830341Y614098D01*
X829911Y614536D01*
Y615149D01*
X830341Y615587D01*
X830648Y615592D01*
Y615592D01*
X836548D01*
X836548Y615592D01*
D02*
G37*
G36*
X769149Y615152D02*
Y614530D01*
X768710Y614091D01*
X762188D01*
X761749Y614530D01*
Y615152D01*
X762188Y615591D01*
X768710D01*
X769149Y615152D01*
D02*
G37*
G36*
X837299Y611653D02*
Y611031D01*
X836859Y610592D01*
X830337D01*
X829898Y611031D01*
Y611653D01*
X830337Y612093D01*
X836859D01*
X837299Y611653D01*
D02*
G37*
G36*
X769149Y611651D02*
Y611030D01*
X768710Y610591D01*
X762188D01*
X761749Y611030D01*
Y611651D01*
X762188Y612091D01*
X768710D01*
X769149Y611651D01*
D02*
G37*
G36*
X1193240Y612747D02*
Y610827D01*
X1193001Y610587D01*
X1191080D01*
X1190841Y610827D01*
Y612747D01*
X1191080Y612987D01*
X1193001D01*
X1193240Y612747D01*
D02*
G37*
G36*
X1188239D02*
Y610827D01*
X1187999Y610587D01*
X1186079D01*
X1185839Y610827D01*
Y612747D01*
X1186079Y612987D01*
X1187999D01*
X1188239Y612747D01*
D02*
G37*
G36*
X1183239D02*
Y610827D01*
X1182999Y610587D01*
X1181079D01*
X1180839Y610827D01*
Y612747D01*
X1181079Y612987D01*
X1182999D01*
X1183239Y612747D01*
D02*
G37*
G36*
X1178239D02*
Y610827D01*
X1177999Y610587D01*
X1176079D01*
X1175839Y610827D01*
Y612747D01*
X1176079Y612987D01*
X1177999D01*
X1178239Y612747D01*
D02*
G37*
G36*
X1173239D02*
Y610827D01*
X1172999Y610587D01*
X1171079D01*
X1170839Y610827D01*
Y612747D01*
X1171079Y612987D01*
X1172999D01*
X1173239Y612747D01*
D02*
G37*
G36*
X1168239D02*
Y610827D01*
X1167999Y610587D01*
X1166079D01*
X1165839Y610827D01*
Y612747D01*
X1166079Y612987D01*
X1167999D01*
X1168239Y612747D01*
D02*
G37*
G36*
X1158239D02*
Y610827D01*
X1157999Y610587D01*
X1156079D01*
X1155839Y610827D01*
Y612747D01*
X1156079Y612987D01*
X1157999D01*
X1158239Y612747D01*
D02*
G37*
G36*
X1153240D02*
Y610827D01*
X1153001Y610587D01*
X1151080D01*
X1150841Y610827D01*
Y612747D01*
X1151080Y612987D01*
X1153001D01*
X1153240Y612747D01*
D02*
G37*
G36*
X1148239D02*
Y610827D01*
X1147999Y610587D01*
X1146079D01*
X1145839Y610827D01*
Y612747D01*
X1146079Y612987D01*
X1147999D01*
X1148239Y612747D01*
D02*
G37*
G36*
X1213240Y612744D02*
Y610824D01*
X1213000Y610584D01*
X1211080D01*
X1210841Y610824D01*
Y612744D01*
X1211080Y612984D01*
X1213000D01*
X1213240Y612744D01*
D02*
G37*
G36*
X1208239D02*
Y610824D01*
X1207999Y610584D01*
X1206079D01*
X1205839Y610824D01*
Y612744D01*
X1206079Y612984D01*
X1207999D01*
X1208239Y612744D01*
D02*
G37*
G36*
X1203240D02*
Y610824D01*
X1203000Y610584D01*
X1201080D01*
X1200841Y610824D01*
Y612744D01*
X1201080Y612984D01*
X1203000D01*
X1203240Y612744D01*
D02*
G37*
G36*
X744241Y613072D02*
Y608272D01*
X743741Y607772D01*
X739241D01*
X738741Y608272D01*
Y613072D01*
X739241Y613772D01*
X743741D01*
X744241Y613072D01*
D02*
G37*
G36*
X837298Y608153D02*
Y607531D01*
X836859Y607092D01*
X830337D01*
X829897Y607531D01*
Y608153D01*
X830337Y608592D01*
X836859D01*
X837298Y608153D01*
D02*
G37*
G36*
X769149Y608151D02*
Y607530D01*
X768710Y607090D01*
X762188D01*
X761749Y607530D01*
Y608151D01*
X762188Y608591D01*
X768710D01*
X769149Y608151D01*
D02*
G37*
G36*
X1213240Y607746D02*
Y605826D01*
X1213000Y605586D01*
X1211080D01*
X1210841Y605826D01*
Y607746D01*
X1211080Y607985D01*
X1213000D01*
X1213240Y607746D01*
D02*
G37*
G36*
X1208239D02*
Y605826D01*
X1207999Y605586D01*
X1206079D01*
X1205839Y605826D01*
Y607746D01*
X1206079Y607985D01*
X1207999D01*
X1208239Y607746D01*
D02*
G37*
G36*
X1203240D02*
Y605826D01*
X1203000Y605586D01*
X1201080D01*
X1200841Y605826D01*
Y607746D01*
X1201080Y607985D01*
X1203000D01*
X1203240Y607746D01*
D02*
G37*
G36*
X1193240D02*
Y605826D01*
X1193001Y605586D01*
X1191080D01*
X1190841Y605826D01*
Y607746D01*
X1191080Y607985D01*
X1193001D01*
X1193240Y607746D01*
D02*
G37*
G36*
X1168239D02*
Y605826D01*
X1167999Y605586D01*
X1166079D01*
X1165839Y605826D01*
Y607746D01*
X1166079Y607985D01*
X1167999D01*
X1168239Y607746D01*
D02*
G37*
G36*
X1158239D02*
Y605826D01*
X1157999Y605586D01*
X1156079D01*
X1155839Y605826D01*
Y607746D01*
X1156079Y607985D01*
X1157999D01*
X1158239Y607746D01*
D02*
G37*
G36*
X1153240D02*
Y605826D01*
X1153001Y605586D01*
X1151080D01*
X1150841Y605826D01*
Y607746D01*
X1151080Y607985D01*
X1153001D01*
X1153240Y607746D01*
D02*
G37*
G36*
X1148239D02*
Y605826D01*
X1147999Y605586D01*
X1146079D01*
X1145839Y605826D01*
Y607746D01*
X1146079Y607985D01*
X1147999D01*
X1148239Y607746D01*
D02*
G37*
G36*
X837298Y604653D02*
Y604031D01*
X836859Y603592D01*
X830337D01*
X829898Y604031D01*
Y604653D01*
X830337Y605092D01*
X836859D01*
X837298Y604653D01*
D02*
G37*
G36*
X769149Y604651D02*
Y604030D01*
X768709Y603590D01*
X762188D01*
X761749Y604030D01*
Y604651D01*
X762188Y605090D01*
X768709D01*
X769149Y604651D01*
D02*
G37*
G36*
X1213240Y602747D02*
Y600827D01*
X1213000Y600587D01*
X1211080D01*
X1210841Y600827D01*
Y602747D01*
X1211080Y602987D01*
X1213000D01*
X1213240Y602747D01*
D02*
G37*
G36*
X1208239D02*
Y600827D01*
X1207999Y600587D01*
X1206079D01*
X1205839Y600827D01*
Y602747D01*
X1206079Y602987D01*
X1207999D01*
X1208239Y602747D01*
D02*
G37*
G36*
X1203240D02*
Y600827D01*
X1203000Y600587D01*
X1201080D01*
X1200841Y600827D01*
Y602747D01*
X1201080Y602987D01*
X1203000D01*
X1203240Y602747D01*
D02*
G37*
G36*
X1193240D02*
Y600827D01*
X1193001Y600587D01*
X1191080D01*
X1190841Y600827D01*
Y602747D01*
X1191080Y602987D01*
X1193001D01*
X1193240Y602747D01*
D02*
G37*
G36*
X1168239D02*
Y600827D01*
X1167999Y600587D01*
X1166079D01*
X1165839Y600827D01*
Y602747D01*
X1166079Y602987D01*
X1167999D01*
X1168239Y602747D01*
D02*
G37*
G36*
X1158239D02*
Y600827D01*
X1157999Y600587D01*
X1156079D01*
X1155839Y600827D01*
Y602747D01*
X1156079Y602987D01*
X1157999D01*
X1158239Y602747D01*
D02*
G37*
G36*
X1153240D02*
Y600827D01*
X1153001Y600587D01*
X1151080D01*
X1150841Y600827D01*
Y602747D01*
X1151080Y602987D01*
X1153001D01*
X1153240Y602747D01*
D02*
G37*
G36*
X1148239D02*
Y600827D01*
X1147999Y600587D01*
X1146079D01*
X1145839Y600827D01*
Y602747D01*
X1146079Y602987D01*
X1147999D01*
X1148239Y602747D01*
D02*
G37*
G36*
X837298Y601153D02*
Y600531D01*
X836859Y600092D01*
X830337D01*
X829897Y600531D01*
Y601153D01*
X830337Y601592D01*
X836859D01*
X837298Y601153D01*
D02*
G37*
G36*
X769149Y601151D02*
Y600530D01*
X768709Y600091D01*
X762188D01*
X761749Y600530D01*
Y601151D01*
X762188Y601591D01*
X768709D01*
X769149Y601151D01*
D02*
G37*
G36*
X837298Y597652D02*
Y597031D01*
X836858Y596591D01*
X830337D01*
X829898Y597031D01*
Y597652D01*
X830337Y598092D01*
X836858D01*
X837298Y597652D01*
D02*
G37*
G36*
X769149Y597651D02*
Y597029D01*
X768709Y596590D01*
X762188D01*
X761748Y597029D01*
Y597651D01*
X762188Y598090D01*
X768709D01*
X769149Y597651D01*
D02*
G37*
G36*
X1213240Y597746D02*
Y595826D01*
X1213000Y595586D01*
X1211080D01*
X1210841Y595826D01*
Y597746D01*
X1211080Y597985D01*
X1213000D01*
X1213240Y597746D01*
D02*
G37*
G36*
X1208239D02*
Y595826D01*
X1207999Y595586D01*
X1206079D01*
X1205839Y595826D01*
Y597746D01*
X1206079Y597985D01*
X1207999D01*
X1208239Y597746D01*
D02*
G37*
G36*
X1203240D02*
Y595826D01*
X1203000Y595586D01*
X1201080D01*
X1200841Y595826D01*
Y597746D01*
X1201080Y597985D01*
X1203000D01*
X1203240Y597746D01*
D02*
G37*
G36*
X1193240D02*
Y595826D01*
X1193001Y595586D01*
X1191080D01*
X1190841Y595826D01*
Y597746D01*
X1191080Y597985D01*
X1193001D01*
X1193240Y597746D01*
D02*
G37*
G36*
X1168239D02*
Y595826D01*
X1167999Y595586D01*
X1166079D01*
X1165839Y595826D01*
Y597746D01*
X1166079Y597985D01*
X1167999D01*
X1168239Y597746D01*
D02*
G37*
G36*
X1158239D02*
Y595826D01*
X1157999Y595586D01*
X1156079D01*
X1155839Y595826D01*
Y597746D01*
X1156079Y597985D01*
X1157999D01*
X1158239Y597746D01*
D02*
G37*
G36*
X1153240D02*
Y595826D01*
X1153001Y595586D01*
X1151080D01*
X1150841Y595826D01*
Y597746D01*
X1151080Y597985D01*
X1153001D01*
X1153240Y597746D01*
D02*
G37*
G36*
X1148239D02*
Y595826D01*
X1147999Y595586D01*
X1146079D01*
X1145839Y595826D01*
Y597746D01*
X1146079Y597985D01*
X1147999D01*
X1148239Y597746D01*
D02*
G37*
G36*
X741907Y598670D02*
Y594170D01*
X741407Y593670D01*
X736607D01*
X735907Y594170D01*
Y598670D01*
X736607Y599170D01*
X741407D01*
X741907Y598670D01*
D02*
G37*
G36*
X732307D02*
Y594170D01*
X731607Y593670D01*
X726807D01*
X726307Y594170D01*
Y598670D01*
X726807Y599170D01*
X731607D01*
X732307Y598670D01*
D02*
G37*
G36*
X836853Y594583D02*
X837278Y594146D01*
Y593536D01*
X836853Y593099D01*
X836548Y593091D01*
X830648Y593091D01*
Y593091D01*
X830343Y593099D01*
X829917Y593536D01*
Y594146D01*
X830343Y594583D01*
X830648Y594591D01*
X836548D01*
X836853Y594583D01*
D02*
G37*
G36*
X769149Y594150D02*
Y593529D01*
X768709Y593089D01*
X762188D01*
X761748Y593529D01*
Y594150D01*
X762188Y594590D01*
X768709D01*
X769149Y594150D01*
D02*
G37*
G36*
X713986Y597940D02*
Y593140D01*
X713486Y592440D01*
X708986D01*
X708486Y593140D01*
Y597940D01*
X708986Y598440D01*
X713486D01*
X713986Y597940D01*
D02*
G37*
G36*
X668281Y597764D02*
Y592964D01*
X667781Y592264D01*
X663281D01*
X662781Y592964D01*
Y597764D01*
X663281Y598264D01*
X667781D01*
X668281Y597764D01*
D02*
G37*
G36*
X1213240Y592747D02*
Y590827D01*
X1213000Y590587D01*
X1211080D01*
X1210841Y590827D01*
Y592747D01*
X1211080Y592987D01*
X1213000D01*
X1213240Y592747D01*
D02*
G37*
G36*
X1208239D02*
Y590827D01*
X1207999Y590587D01*
X1206079D01*
X1205839Y590827D01*
Y592747D01*
X1206079Y592987D01*
X1207999D01*
X1208239Y592747D01*
D02*
G37*
G36*
X1203240D02*
Y590827D01*
X1203000Y590587D01*
X1201080D01*
X1200841Y590827D01*
Y592747D01*
X1201080Y592987D01*
X1203000D01*
X1203240Y592747D01*
D02*
G37*
G36*
X1193240D02*
Y590827D01*
X1193001Y590587D01*
X1191080D01*
X1190841Y590827D01*
Y592747D01*
X1191080Y592987D01*
X1193001D01*
X1193240Y592747D01*
D02*
G37*
G36*
X1168239D02*
Y590827D01*
X1167999Y590587D01*
X1166079D01*
X1165839Y590827D01*
Y592747D01*
X1166079Y592987D01*
X1167999D01*
X1168239Y592747D01*
D02*
G37*
G36*
X1158239D02*
Y590827D01*
X1157999Y590587D01*
X1156079D01*
X1155839Y590827D01*
Y592747D01*
X1156079Y592987D01*
X1157999D01*
X1158239Y592747D01*
D02*
G37*
G36*
X1153240D02*
Y590827D01*
X1153001Y590587D01*
X1151080D01*
X1150841Y590827D01*
Y592747D01*
X1151080Y592987D01*
X1153001D01*
X1153240Y592747D01*
D02*
G37*
G36*
X1148239D02*
Y590827D01*
X1147999Y590587D01*
X1146079D01*
X1145839Y590827D01*
Y592747D01*
X1146079Y592987D01*
X1147999D01*
X1148239Y592747D01*
D02*
G37*
G36*
X637165Y602280D02*
Y590780D01*
X636665Y590280D01*
X632564Y590331D01*
Y594730D01*
X628064D01*
Y590281D01*
X623865Y590280D01*
X623364Y590780D01*
Y602280D01*
X623865Y602780D01*
X636665D01*
X637165Y602280D01*
D02*
G37*
G36*
X837298Y590652D02*
Y590031D01*
X836858Y589591D01*
X830337D01*
X829898Y590031D01*
Y590652D01*
X830337Y591091D01*
X836858D01*
X837298Y590652D01*
D02*
G37*
G36*
X768704Y591082D02*
X769129Y590645D01*
Y590035D01*
X768704Y589598D01*
X768399Y589590D01*
X768399Y589590D01*
X762498D01*
Y589590D01*
X762193Y589598D01*
X761768Y590035D01*
Y590645D01*
X762193Y591082D01*
X762498Y591089D01*
X768399D01*
X768704Y591082D01*
D02*
G37*
G36*
X837298Y587152D02*
Y586531D01*
X836858Y586091D01*
X830337D01*
X829897Y586531D01*
Y587152D01*
X830337Y587591D01*
X836858D01*
X837298Y587152D01*
D02*
G37*
G36*
X769149Y587150D02*
Y586529D01*
X768709Y586090D01*
X762188D01*
X761748Y586529D01*
Y587150D01*
X762188Y587590D01*
X768709D01*
X769149Y587150D01*
D02*
G37*
G36*
X1213240Y587746D02*
Y585826D01*
X1213000Y585586D01*
X1211080D01*
X1210841Y585826D01*
Y587746D01*
X1211080Y587986D01*
X1213000D01*
X1213240Y587746D01*
D02*
G37*
G36*
X1208239D02*
Y585826D01*
X1207999Y585586D01*
X1206079D01*
X1205839Y585826D01*
Y587746D01*
X1206079Y587986D01*
X1207999D01*
X1208239Y587746D01*
D02*
G37*
G36*
X1203240D02*
Y585826D01*
X1203000Y585586D01*
X1201080D01*
X1200841Y585826D01*
Y587746D01*
X1201080Y587986D01*
X1203000D01*
X1203240Y587746D01*
D02*
G37*
G36*
X1193240D02*
Y585826D01*
X1193001Y585586D01*
X1191080D01*
X1190841Y585826D01*
Y587746D01*
X1191080Y587986D01*
X1193001D01*
X1193240Y587746D01*
D02*
G37*
G36*
X1188239D02*
Y585826D01*
X1187999Y585586D01*
X1186079D01*
X1185839Y585826D01*
Y587746D01*
X1186079Y587986D01*
X1187999D01*
X1188239Y587746D01*
D02*
G37*
G36*
X1183239D02*
Y585826D01*
X1182999Y585586D01*
X1181079D01*
X1180839Y585826D01*
Y587746D01*
X1181079Y587986D01*
X1182999D01*
X1183239Y587746D01*
D02*
G37*
G36*
X1178239D02*
Y585826D01*
X1177999Y585586D01*
X1176079D01*
X1175839Y585826D01*
Y587746D01*
X1176079Y587986D01*
X1177999D01*
X1178239Y587746D01*
D02*
G37*
G36*
X1173239D02*
Y585826D01*
X1172999Y585586D01*
X1171079D01*
X1170839Y585826D01*
Y587746D01*
X1171079Y587986D01*
X1172999D01*
X1173239Y587746D01*
D02*
G37*
G36*
X1168239D02*
Y585826D01*
X1167999Y585586D01*
X1166079D01*
X1165839Y585826D01*
Y587746D01*
X1166079Y587986D01*
X1167999D01*
X1168239Y587746D01*
D02*
G37*
G36*
X1158239D02*
Y585826D01*
X1157999Y585586D01*
X1156079D01*
X1155839Y585826D01*
Y587746D01*
X1156079Y587986D01*
X1157999D01*
X1158239Y587746D01*
D02*
G37*
G36*
X1153240D02*
Y585826D01*
X1153001Y585586D01*
X1151080D01*
X1150841Y585826D01*
Y587746D01*
X1151080Y587986D01*
X1153001D01*
X1153240Y587746D01*
D02*
G37*
G36*
X1148239D02*
Y585826D01*
X1147999Y585586D01*
X1146079D01*
X1145839Y585826D01*
Y587746D01*
X1146079Y587986D01*
X1147999D01*
X1148239Y587746D01*
D02*
G37*
G36*
X713986Y588140D02*
Y583340D01*
X713486Y582840D01*
X708986D01*
X708486Y583340D01*
Y588140D01*
X708986Y588840D01*
X713486D01*
X713986Y588140D01*
D02*
G37*
G36*
X668281Y587964D02*
Y583164D01*
X667781Y582664D01*
X663281D01*
X662781Y583164D01*
Y587964D01*
X663281Y588664D01*
X667781D01*
X668281Y587964D01*
D02*
G37*
G36*
X837298Y583652D02*
Y583030D01*
X836858Y582591D01*
X830337D01*
X829897Y583030D01*
Y583652D01*
X830337Y584091D01*
X836858D01*
X837298Y583652D01*
D02*
G37*
G36*
X769148Y583650D02*
Y583029D01*
X768709Y582589D01*
X762187D01*
X761748Y583029D01*
Y583650D01*
X762187Y584090D01*
X768709D01*
X769148Y583650D01*
D02*
G37*
G36*
X742105Y587382D02*
Y582882D01*
X741605Y582382D01*
X736805D01*
X736105Y582882D01*
Y587382D01*
X736805Y587882D01*
X741605D01*
X742105Y587382D01*
D02*
G37*
G36*
X732505D02*
Y582882D01*
X731805Y582382D01*
X727005D01*
X726505Y582882D01*
Y587382D01*
X727005Y587882D01*
X731805D01*
X732505Y587382D01*
D02*
G37*
G36*
X1163240Y582747D02*
Y580827D01*
X1163001Y580587D01*
X1161080D01*
X1160841Y580827D01*
Y582747D01*
X1161080Y582987D01*
X1163001D01*
X1163240Y582747D01*
D02*
G37*
G36*
X1158239D02*
Y580827D01*
X1157999Y580587D01*
X1156079D01*
X1155839Y580827D01*
Y582747D01*
X1156079Y582987D01*
X1157999D01*
X1158239Y582747D01*
D02*
G37*
G36*
X1153240D02*
Y580827D01*
X1153001Y580587D01*
X1151080D01*
X1150841Y580827D01*
Y582747D01*
X1151080Y582987D01*
X1153001D01*
X1153240Y582747D01*
D02*
G37*
G36*
X1148239D02*
Y580827D01*
X1147999Y580587D01*
X1146079D01*
X1145839Y580827D01*
Y582747D01*
X1146079Y582987D01*
X1147999D01*
X1148239Y582747D01*
D02*
G37*
G36*
X1213240Y582744D02*
Y580824D01*
X1213000Y580584D01*
X1211080D01*
X1210841Y580824D01*
Y582744D01*
X1211080Y582984D01*
X1213000D01*
X1213240Y582744D01*
D02*
G37*
G36*
X1208239D02*
Y580824D01*
X1207999Y580584D01*
X1206079D01*
X1205839Y580824D01*
Y582744D01*
X1206079Y582984D01*
X1207999D01*
X1208239Y582744D01*
D02*
G37*
G36*
X1203240D02*
Y580824D01*
X1203000Y580584D01*
X1201080D01*
X1200841Y580824D01*
Y582744D01*
X1201080Y582984D01*
X1203000D01*
X1203240Y582744D01*
D02*
G37*
G36*
X836852Y580582D02*
X837278Y580145D01*
Y579535D01*
X836852Y579099D01*
X836547Y579091D01*
X830647Y579091D01*
Y579091D01*
X830342Y579099D01*
X829917Y579535D01*
Y580145D01*
X830342Y580582D01*
X830647Y580590D01*
X836547D01*
X836852Y580582D01*
D02*
G37*
G36*
X768399Y580589D02*
X768705Y580584D01*
X769135Y580146D01*
Y579533D01*
X768705Y579095D01*
X768399Y579090D01*
X762498D01*
X762191Y579095D01*
X761762Y579533D01*
Y580146D01*
X762191Y580584D01*
X762498Y580589D01*
X768399Y580589D01*
X768399Y580589D01*
D02*
G37*
G36*
X636665Y581280D02*
X637165Y580780D01*
Y569280D01*
X636665Y568780D01*
X623865D01*
X623364Y569280D01*
Y580780D01*
X623865Y581280D01*
X628064Y581231D01*
Y576830D01*
X632564D01*
Y581331D01*
X636665Y581280D01*
D02*
G37*
G36*
X837298Y576651D02*
Y576030D01*
X836858Y575590D01*
X830337D01*
X829897Y576030D01*
Y576651D01*
X830337Y577090D01*
X836858D01*
X837298Y576651D01*
D02*
G37*
G36*
X769148Y576650D02*
Y576029D01*
X768709Y575589D01*
X762187D01*
X761748Y576029D01*
Y576650D01*
X762187Y577090D01*
X768709D01*
X769148Y576650D01*
D02*
G37*
G36*
X1213240Y577746D02*
Y575826D01*
X1213000Y575586D01*
X1211080D01*
X1210841Y575826D01*
Y577746D01*
X1211080Y577986D01*
X1213000D01*
X1213240Y577746D01*
D02*
G37*
G36*
X1208240D02*
Y575826D01*
X1208000Y575586D01*
X1206080D01*
X1205841Y575826D01*
Y577746D01*
X1206080Y577986D01*
X1208000D01*
X1208240Y577746D01*
D02*
G37*
G36*
X1203240D02*
Y575826D01*
X1203000Y575586D01*
X1201080D01*
X1200841Y575826D01*
Y577746D01*
X1201080Y577986D01*
X1203000D01*
X1203240Y577746D01*
D02*
G37*
G36*
X1198239D02*
Y575826D01*
X1197999Y575586D01*
X1196079D01*
X1195839Y575826D01*
Y577746D01*
X1196079Y577986D01*
X1197999D01*
X1198239Y577746D01*
D02*
G37*
G36*
X1193239D02*
Y575826D01*
X1192999Y575586D01*
X1191079D01*
X1190839Y575826D01*
Y577746D01*
X1191079Y577986D01*
X1192999D01*
X1193239Y577746D01*
D02*
G37*
G36*
X1188239D02*
Y575826D01*
X1187999Y575586D01*
X1186079D01*
X1185839Y575826D01*
Y577746D01*
X1186079Y577986D01*
X1187999D01*
X1188239Y577746D01*
D02*
G37*
G36*
X1183239D02*
Y575826D01*
X1182999Y575586D01*
X1181079D01*
X1180839Y575826D01*
Y577746D01*
X1181079Y577986D01*
X1182999D01*
X1183239Y577746D01*
D02*
G37*
G36*
X1178239D02*
Y575826D01*
X1177999Y575586D01*
X1176079D01*
X1175839Y575826D01*
Y577746D01*
X1176079Y577986D01*
X1177999D01*
X1178239Y577746D01*
D02*
G37*
G36*
X1173239D02*
Y575826D01*
X1172999Y575586D01*
X1171079D01*
X1170839Y575826D01*
Y577746D01*
X1171079Y577986D01*
X1172999D01*
X1173239Y577746D01*
D02*
G37*
G36*
X1168239D02*
Y575826D01*
X1167999Y575586D01*
X1166079D01*
X1165839Y575826D01*
Y577746D01*
X1166079Y577986D01*
X1167999D01*
X1168239Y577746D01*
D02*
G37*
G36*
X1163239D02*
Y575826D01*
X1162999Y575586D01*
X1161079D01*
X1160839Y575826D01*
Y577746D01*
X1161079Y577986D01*
X1162999D01*
X1163239Y577746D01*
D02*
G37*
G36*
X1158239D02*
Y575826D01*
X1157999Y575586D01*
X1156079D01*
X1155839Y575826D01*
Y577746D01*
X1156079Y577986D01*
X1157999D01*
X1158239Y577746D01*
D02*
G37*
G36*
X1153239D02*
Y575826D01*
X1152999Y575586D01*
X1151079D01*
X1150839Y575826D01*
Y577746D01*
X1151079Y577986D01*
X1152999D01*
X1153239Y577746D01*
D02*
G37*
G36*
X1148239D02*
Y575826D01*
X1147999Y575586D01*
X1146079D01*
X1145839Y575826D01*
Y577746D01*
X1146079Y577986D01*
X1147999D01*
X1148239Y577746D01*
D02*
G37*
G36*
X821523Y575339D02*
X777522D01*
Y619339D01*
X821523D01*
Y575339D01*
D02*
G37*
G36*
X836852Y573582D02*
X837278Y573145D01*
Y572536D01*
X836852Y572099D01*
X836547Y572091D01*
X830647Y572091D01*
Y572091D01*
X830342Y572099D01*
X829917Y572536D01*
Y573145D01*
X830342Y573582D01*
X830647Y573590D01*
X836547D01*
X836852Y573582D01*
D02*
G37*
G36*
X769149Y573150D02*
Y572529D01*
X768710Y572089D01*
X762188D01*
X761749Y572529D01*
Y573150D01*
X762188Y573589D01*
X768710D01*
X769149Y573150D01*
D02*
G37*
G36*
X742064Y575996D02*
Y571496D01*
X741563Y570996D01*
X736763D01*
X736064Y571496D01*
Y575996D01*
X736763Y576496D01*
X741563D01*
X742064Y575996D01*
D02*
G37*
G36*
X732463D02*
Y571496D01*
X731763Y570996D01*
X726963D01*
X726463Y571496D01*
Y575996D01*
X726963Y576496D01*
X731763D01*
X732463Y575996D01*
D02*
G37*
G36*
X1213240Y572747D02*
Y570827D01*
X1213000Y570587D01*
X1211080D01*
X1210841Y570827D01*
Y572747D01*
X1211080Y572987D01*
X1213000D01*
X1213240Y572747D01*
D02*
G37*
G36*
X1208240D02*
Y570827D01*
X1208000Y570587D01*
X1206080D01*
X1205841Y570827D01*
Y572747D01*
X1206080Y572987D01*
X1208000D01*
X1208240Y572747D01*
D02*
G37*
G36*
X1203240D02*
Y570827D01*
X1203000Y570587D01*
X1201080D01*
X1200841Y570827D01*
Y572747D01*
X1201080Y572987D01*
X1203000D01*
X1203240Y572747D01*
D02*
G37*
G36*
X1198239D02*
Y570827D01*
X1197999Y570587D01*
X1196079D01*
X1195839Y570827D01*
Y572747D01*
X1196079Y572987D01*
X1197999D01*
X1198239Y572747D01*
D02*
G37*
G36*
X1193239D02*
Y570827D01*
X1192999Y570587D01*
X1191079D01*
X1190839Y570827D01*
Y572747D01*
X1191079Y572987D01*
X1192999D01*
X1193239Y572747D01*
D02*
G37*
G36*
X1188239D02*
Y570827D01*
X1187999Y570587D01*
X1186079D01*
X1185839Y570827D01*
Y572747D01*
X1186079Y572987D01*
X1187999D01*
X1188239Y572747D01*
D02*
G37*
G36*
X1183239D02*
Y570827D01*
X1182999Y570587D01*
X1181079D01*
X1180839Y570827D01*
Y572747D01*
X1181079Y572987D01*
X1182999D01*
X1183239Y572747D01*
D02*
G37*
G36*
X1178239D02*
Y570827D01*
X1177999Y570587D01*
X1176079D01*
X1175839Y570827D01*
Y572747D01*
X1176079Y572987D01*
X1177999D01*
X1178239Y572747D01*
D02*
G37*
G36*
X1173239D02*
Y570827D01*
X1172999Y570587D01*
X1171079D01*
X1170839Y570827D01*
Y572747D01*
X1171079Y572987D01*
X1172999D01*
X1173239Y572747D01*
D02*
G37*
G36*
X1168239D02*
Y570827D01*
X1167999Y570587D01*
X1166079D01*
X1165839Y570827D01*
Y572747D01*
X1166079Y572987D01*
X1167999D01*
X1168239Y572747D01*
D02*
G37*
G36*
X1163239D02*
Y570827D01*
X1162999Y570587D01*
X1161079D01*
X1160839Y570827D01*
Y572747D01*
X1161079Y572987D01*
X1162999D01*
X1163239Y572747D01*
D02*
G37*
G36*
X1158239D02*
Y570827D01*
X1157999Y570587D01*
X1156079D01*
X1155839Y570827D01*
Y572747D01*
X1156079Y572987D01*
X1157999D01*
X1158239Y572747D01*
D02*
G37*
G36*
X1153239D02*
Y570827D01*
X1152999Y570587D01*
X1151079D01*
X1150839Y570827D01*
Y572747D01*
X1151079Y572987D01*
X1152999D01*
X1153239Y572747D01*
D02*
G37*
G36*
X1148239D02*
Y570827D01*
X1147999Y570587D01*
X1146079D01*
X1145839Y570827D01*
Y572747D01*
X1146079Y572987D01*
X1147999D01*
X1148239Y572747D01*
D02*
G37*
G36*
X837298Y569651D02*
Y569030D01*
X836858Y568590D01*
X830337D01*
X829897Y569030D01*
Y569651D01*
X830337Y570090D01*
X836858D01*
X837298Y569651D01*
D02*
G37*
G36*
X769149Y569650D02*
Y569029D01*
X768710Y568589D01*
X762188D01*
X761749Y569029D01*
Y569650D01*
X762188Y570089D01*
X768710D01*
X769149Y569650D01*
D02*
G37*
G36*
X1213240Y567746D02*
Y565826D01*
X1213000Y565586D01*
X1211080D01*
X1210841Y565826D01*
Y567746D01*
X1211080Y567986D01*
X1213000D01*
X1213240Y567746D01*
D02*
G37*
G36*
X1208240D02*
Y565826D01*
X1208000Y565586D01*
X1206080D01*
X1205841Y565826D01*
Y567746D01*
X1206080Y567986D01*
X1208000D01*
X1208240Y567746D01*
D02*
G37*
G36*
X1203240D02*
Y565826D01*
X1203000Y565586D01*
X1201080D01*
X1200841Y565826D01*
Y567746D01*
X1201080Y567986D01*
X1203000D01*
X1203240Y567746D01*
D02*
G37*
G36*
X1198239D02*
Y565826D01*
X1197999Y565586D01*
X1196079D01*
X1195839Y565826D01*
Y567746D01*
X1196079Y567986D01*
X1197999D01*
X1198239Y567746D01*
D02*
G37*
G36*
X1193239D02*
Y565826D01*
X1192999Y565586D01*
X1191079D01*
X1190839Y565826D01*
Y567746D01*
X1191079Y567986D01*
X1192999D01*
X1193239Y567746D01*
D02*
G37*
G36*
X1188239D02*
Y565826D01*
X1187999Y565586D01*
X1186079D01*
X1185839Y565826D01*
Y567746D01*
X1186079Y567986D01*
X1187999D01*
X1188239Y567746D01*
D02*
G37*
G36*
X1183239D02*
Y565826D01*
X1182999Y565586D01*
X1181079D01*
X1180839Y565826D01*
Y567746D01*
X1181079Y567986D01*
X1182999D01*
X1183239Y567746D01*
D02*
G37*
G36*
X1178239D02*
Y565826D01*
X1177999Y565586D01*
X1176079D01*
X1175839Y565826D01*
Y567746D01*
X1176079Y567986D01*
X1177999D01*
X1178239Y567746D01*
D02*
G37*
G36*
X1173239D02*
Y565826D01*
X1172999Y565586D01*
X1171079D01*
X1170839Y565826D01*
Y567746D01*
X1171079Y567986D01*
X1172999D01*
X1173239Y567746D01*
D02*
G37*
G36*
X1168239D02*
Y565826D01*
X1167999Y565586D01*
X1166079D01*
X1165839Y565826D01*
Y567746D01*
X1166079Y567986D01*
X1167999D01*
X1168239Y567746D01*
D02*
G37*
G36*
X1163239D02*
Y565826D01*
X1162999Y565586D01*
X1161079D01*
X1160839Y565826D01*
Y567746D01*
X1161079Y567986D01*
X1162999D01*
X1163239Y567746D01*
D02*
G37*
G36*
X1158239D02*
Y565826D01*
X1157999Y565586D01*
X1156079D01*
X1155839Y565826D01*
Y567746D01*
X1156079Y567986D01*
X1157999D01*
X1158239Y567746D01*
D02*
G37*
G36*
X1153239D02*
Y565826D01*
X1152999Y565586D01*
X1151079D01*
X1150839Y565826D01*
Y567746D01*
X1151079Y567986D01*
X1152999D01*
X1153239Y567746D01*
D02*
G37*
G36*
X1148239D02*
Y565826D01*
X1147999Y565586D01*
X1146079D01*
X1145839Y565826D01*
Y567746D01*
X1146079Y567986D01*
X1147999D01*
X1148239Y567746D01*
D02*
G37*
G36*
X807266Y566521D02*
X807274Y566216D01*
X807274D01*
Y560316D01*
X807274Y560316D01*
X807266Y560011D01*
X806829Y559585D01*
X806219D01*
X805782Y560011D01*
X805774Y560316D01*
Y566216D01*
X805782Y566521D01*
X806219Y566947D01*
X806829D01*
X807266Y566521D01*
D02*
G37*
G36*
X817766Y566521D02*
X817774Y566216D01*
X817774D01*
Y560316D01*
X817774Y560316D01*
X817766Y560011D01*
X817329Y559585D01*
X816720D01*
X816283Y560011D01*
X816275Y560316D01*
Y566216D01*
X816283Y566521D01*
X816720Y566946D01*
X817329D01*
X817766Y566521D01*
D02*
G37*
G36*
X828275Y566527D02*
Y566217D01*
Y560316D01*
Y560006D01*
X827835Y559566D01*
X827214D01*
X826775Y560006D01*
Y560316D01*
Y566217D01*
Y566527D01*
X827214Y566967D01*
X827835D01*
X828275Y566527D01*
D02*
G37*
G36*
X824774D02*
Y566217D01*
Y560316D01*
Y560006D01*
X824335Y559566D01*
X823714D01*
X823274Y560006D01*
Y560316D01*
Y566217D01*
Y566527D01*
X823714Y566967D01*
X824335D01*
X824774Y566527D01*
D02*
G37*
G36*
X789773D02*
Y566217D01*
Y560316D01*
Y560006D01*
X789334Y559566D01*
X788713D01*
X788273Y560006D01*
Y560316D01*
Y566217D01*
Y566527D01*
X788713Y566967D01*
X789334D01*
X789773Y566527D01*
D02*
G37*
G36*
X786273D02*
Y566217D01*
Y560316D01*
Y560006D01*
X785834Y559566D01*
X785212D01*
X784773Y560006D01*
Y560316D01*
Y566217D01*
Y566527D01*
X785212Y566967D01*
X785834D01*
X786273Y566527D01*
D02*
G37*
G36*
X782773D02*
Y566217D01*
Y560316D01*
Y560006D01*
X782334Y559566D01*
X781712D01*
X781273Y560006D01*
Y560316D01*
Y566217D01*
Y566527D01*
X781712Y566967D01*
X782334D01*
X782773Y566527D01*
D02*
G37*
G36*
X779273D02*
Y566217D01*
Y560316D01*
Y560006D01*
X778833Y559566D01*
X778212D01*
X777773Y560006D01*
Y560316D01*
Y566217D01*
Y566527D01*
X778212Y566967D01*
X778833D01*
X779273Y566527D01*
D02*
G37*
G36*
X775773D02*
Y566217D01*
Y560316D01*
Y560006D01*
X775333Y559566D01*
X774712D01*
X774273Y560006D01*
Y560316D01*
Y566217D01*
Y566527D01*
X774712Y566967D01*
X775333D01*
X775773Y566527D01*
D02*
G37*
G36*
X772273Y566527D02*
Y566217D01*
Y560316D01*
Y560006D01*
X771833Y559566D01*
X771212D01*
X770772Y560006D01*
Y560316D01*
Y566217D01*
Y566527D01*
X771212Y566967D01*
X771833D01*
X772273Y566527D01*
D02*
G37*
G36*
X796773Y566527D02*
Y566216D01*
Y560316D01*
Y560005D01*
X796334Y559566D01*
X795712D01*
X795273Y560005D01*
Y560316D01*
Y566216D01*
Y566527D01*
X795712Y566966D01*
X796334D01*
X796773Y566527D01*
D02*
G37*
G36*
X793273D02*
Y566216D01*
Y560316D01*
Y560005D01*
X792834Y559566D01*
X792213D01*
X791773Y560005D01*
Y560316D01*
Y566216D01*
Y566527D01*
X792213Y566966D01*
X792834D01*
X793273Y566527D01*
D02*
G37*
G36*
X800274Y566527D02*
Y566216D01*
Y560316D01*
Y560005D01*
X799834Y559566D01*
X799213D01*
X798773Y560005D01*
Y560316D01*
Y566216D01*
Y566527D01*
X799213Y566966D01*
X799834D01*
X800274Y566527D01*
D02*
G37*
G36*
X810774Y566527D02*
Y566216D01*
Y560316D01*
Y560005D01*
X810335Y559566D01*
X809714D01*
X809274Y560005D01*
Y560316D01*
Y566216D01*
Y566527D01*
X809714Y566966D01*
X810335D01*
X810774Y566527D01*
D02*
G37*
G36*
X803774D02*
Y566216D01*
Y560316D01*
Y560005D01*
X803335Y559566D01*
X802714D01*
X802274Y560005D01*
Y560316D01*
Y566216D01*
Y566527D01*
X802714Y566966D01*
X803335D01*
X803774Y566527D01*
D02*
G37*
G36*
X821274Y566527D02*
Y566216D01*
Y560316D01*
Y560005D01*
X820835Y559566D01*
X820214D01*
X819774Y560005D01*
Y560316D01*
Y566216D01*
Y566527D01*
X820214Y566966D01*
X820835D01*
X821274Y566527D01*
D02*
G37*
G36*
X814274D02*
Y566216D01*
Y560316D01*
Y560005D01*
X813835Y559566D01*
X813214D01*
X812774Y560005D01*
Y560316D01*
Y566216D01*
Y566527D01*
X813214Y566966D01*
X813835D01*
X814274Y566527D01*
D02*
G37*
G36*
X741852Y564497D02*
Y559997D01*
X741352Y559497D01*
X736552D01*
X735852Y559997D01*
Y564497D01*
X736552Y564997D01*
X741352D01*
X741852Y564497D01*
D02*
G37*
G36*
X732252D02*
Y559997D01*
X731552Y559497D01*
X726752D01*
X726252Y559997D01*
Y564497D01*
X726752Y564997D01*
X731552D01*
X732252Y564497D01*
D02*
G37*
G36*
X568329Y560358D02*
Y555351D01*
X567929Y554951D01*
X563329D01*
X562929Y555351D01*
Y560358D01*
X563329Y560758D01*
X567929D01*
X568329Y560358D01*
D02*
G37*
G36*
X900380Y558176D02*
Y553576D01*
X899980Y553176D01*
X894974D01*
X894574Y553576D01*
Y558176D01*
X894974Y558576D01*
X899980D01*
X900380Y558176D01*
D02*
G37*
G36*
X891874D02*
Y553576D01*
X891474Y553176D01*
X886467D01*
X886067Y553576D01*
Y558176D01*
X886467Y558576D01*
X891474D01*
X891874Y558176D01*
D02*
G37*
G36*
X1096438Y556865D02*
Y551859D01*
X1096038Y551459D01*
X1091438D01*
X1091038Y551859D01*
Y556865D01*
X1091438Y557265D01*
X1096038D01*
X1096438Y556865D01*
D02*
G37*
G36*
X568329Y551851D02*
Y546845D01*
X567929Y546445D01*
X563329D01*
X562929Y546845D01*
Y551851D01*
X563329Y552251D01*
X567929D01*
X568329Y551851D01*
D02*
G37*
G36*
X1096438Y548359D02*
Y543353D01*
X1096038Y542952D01*
X1091438D01*
X1091038Y543353D01*
Y548359D01*
X1091438Y548759D01*
X1096038D01*
X1096438Y548359D01*
D02*
G37*
G36*
X900593Y547903D02*
Y543403D01*
X900093Y542903D01*
X895293D01*
X894593Y543403D01*
Y547903D01*
X895293Y548403D01*
X900093D01*
X900593Y547903D01*
D02*
G37*
G36*
X890993D02*
Y543403D01*
X890293Y542903D01*
X885493D01*
X884993Y543403D01*
Y547903D01*
X885493Y548403D01*
X890293D01*
X890993Y547903D01*
D02*
G37*
G36*
X1028801Y545328D02*
Y540728D01*
X1028401Y540328D01*
X1023395D01*
X1022995Y540728D01*
Y545328D01*
X1023395Y545728D01*
X1028401D01*
X1028801Y545328D01*
D02*
G37*
G36*
X1020295D02*
Y540728D01*
X1019895Y540328D01*
X1014889D01*
X1014489Y540728D01*
Y545328D01*
X1014889Y545728D01*
X1019895D01*
X1020295Y545328D01*
D02*
G37*
G36*
X843797Y541611D02*
Y536811D01*
X843298Y536112D01*
X838798D01*
X838298Y536811D01*
Y541611D01*
X838798Y542112D01*
X843298D01*
X843797Y541611D01*
D02*
G37*
G36*
X776961Y543822D02*
Y538790D01*
X774023Y536048D01*
X771258D01*
X768321Y538790D01*
Y543822D01*
X768961Y544462D01*
X776321D01*
X776961Y543822D01*
D02*
G37*
G36*
X834299Y541498D02*
Y536698D01*
X833800Y535998D01*
X829299D01*
X828800Y536698D01*
Y541498D01*
X829299Y541998D01*
X833800D01*
X834299Y541498D01*
D02*
G37*
G36*
X762766Y543758D02*
Y538726D01*
X759828Y535984D01*
X757064D01*
X754126Y538726D01*
Y543758D01*
X754766Y544398D01*
X762126D01*
X762766Y543758D01*
D02*
G37*
G36*
X568448Y541187D02*
Y536180D01*
X568048Y535780D01*
X563448D01*
X563048Y536180D01*
Y541187D01*
X563448Y541587D01*
X568048D01*
X568448Y541187D01*
D02*
G37*
G36*
X1028761Y536498D02*
Y531898D01*
X1028361Y531498D01*
X1023355D01*
X1022955Y531898D01*
Y536498D01*
X1023355Y536898D01*
X1028361D01*
X1028761Y536498D01*
D02*
G37*
G36*
X1020255D02*
Y531898D01*
X1019855Y531498D01*
X1014848D01*
X1014448Y531898D01*
Y536498D01*
X1014848Y536898D01*
X1019855D01*
X1020255Y536498D01*
D02*
G37*
G36*
X568448Y532680D02*
Y527674D01*
X568048Y527274D01*
X563448D01*
X563048Y527674D01*
Y532680D01*
X563448Y533080D01*
X568048D01*
X568448Y532680D01*
D02*
G37*
G36*
X843797Y531811D02*
Y527011D01*
X843298Y526511D01*
X838798D01*
X838298Y527011D01*
Y531811D01*
X838798Y532511D01*
X843298D01*
X843797Y531811D01*
D02*
G37*
G36*
X834299Y531698D02*
Y526898D01*
X833800Y526398D01*
X829299D01*
X828800Y526898D01*
Y531698D01*
X829299Y532398D01*
X833800D01*
X834299Y531698D01*
D02*
G37*
G36*
X1097568Y529700D02*
Y524694D01*
X1097168Y524294D01*
X1092568D01*
X1092168Y524694D01*
Y529700D01*
X1092568Y530100D01*
X1097168D01*
X1097568Y529700D01*
D02*
G37*
G36*
X776848Y528149D02*
Y523116D01*
X776208Y522476D01*
X768848D01*
X768208Y523116D01*
Y528149D01*
X771146Y530891D01*
X773911D01*
X776848Y528149D01*
D02*
G37*
G36*
X762654Y528085D02*
Y523052D01*
X762013Y522412D01*
X754653D01*
X754013Y523052D01*
Y528085D01*
X756951Y530827D01*
X759716D01*
X762654Y528085D01*
D02*
G37*
G36*
X627803Y522287D02*
Y517687D01*
X627403Y517287D01*
X622396D01*
X621996Y517687D01*
Y522287D01*
X622396Y522687D01*
X627403D01*
X627803Y522287D01*
D02*
G37*
G36*
X619296D02*
Y517687D01*
X618896Y517287D01*
X613890D01*
X613490Y517687D01*
Y522287D01*
X613890Y522687D01*
X618896D01*
X619296Y522287D01*
D02*
G37*
G36*
X685993Y522200D02*
Y517600D01*
X685593Y517200D01*
X680587D01*
X680187Y517600D01*
Y522200D01*
X680587Y522600D01*
X685593D01*
X685993Y522200D01*
D02*
G37*
G36*
X677487D02*
Y517600D01*
X677087Y517200D01*
X672081D01*
X671680Y517600D01*
Y522200D01*
X672081Y522600D01*
X677087D01*
X677487Y522200D01*
D02*
G37*
G36*
X1097568Y521194D02*
Y516187D01*
X1097168Y515787D01*
X1092568D01*
X1092168Y516187D01*
Y521194D01*
X1092568Y521594D01*
X1097168D01*
X1097568Y521194D01*
D02*
G37*
G36*
X761522Y516757D02*
Y512257D01*
X761022Y511757D01*
X756222D01*
X755522Y512257D01*
Y516757D01*
X756222Y517257D01*
X761022D01*
X761522Y516757D01*
D02*
G37*
G36*
X751922D02*
Y512257D01*
X751222Y511757D01*
X746422D01*
X745922Y512257D01*
Y516757D01*
X746422Y517257D01*
X751222D01*
X751922Y516757D01*
D02*
G37*
G36*
X784750Y512957D02*
Y508456D01*
X784250Y507957D01*
X779450D01*
X778750Y508456D01*
Y512957D01*
X779450Y513456D01*
X784250D01*
X784750Y512957D01*
D02*
G37*
G36*
X775150D02*
Y508456D01*
X774450Y507957D01*
X769650D01*
X769150Y508456D01*
Y512957D01*
X769650Y513456D01*
X774450D01*
X775150Y512957D01*
D02*
G37*
G36*
X1043913Y488116D02*
Y483616D01*
X1043412Y483116D01*
X1038612D01*
X1037913Y483616D01*
Y488116D01*
X1038612Y488616D01*
X1043412D01*
X1043913Y488116D01*
D02*
G37*
G36*
X1034312D02*
Y483616D01*
X1033612Y483116D01*
X1028812D01*
X1028312Y483616D01*
Y488116D01*
X1028812Y488616D01*
X1033612D01*
X1034312Y488116D01*
D02*
G37*
G36*
X1292319Y486809D02*
Y481802D01*
X1291919Y481402D01*
X1287319D01*
X1286919Y481802D01*
Y486809D01*
X1287319Y487209D01*
X1291919D01*
X1292319Y486809D01*
D02*
G37*
G36*
Y478302D02*
Y473296D01*
X1291919Y472896D01*
X1287319D01*
X1286919Y473296D01*
Y478302D01*
X1287319Y478702D01*
X1291919D01*
X1292319Y478302D01*
D02*
G37*
G36*
X1246983Y477445D02*
Y472439D01*
X1246583Y472038D01*
X1241983D01*
X1241583Y472439D01*
Y477445D01*
X1241983Y477845D01*
X1246583D01*
X1246983Y477445D01*
D02*
G37*
G36*
X1236971Y476184D02*
Y471384D01*
X1236471Y470684D01*
X1231971D01*
X1231471Y471384D01*
Y476184D01*
X1231971Y476684D01*
X1236471D01*
X1236971Y476184D01*
D02*
G37*
G36*
X1246983Y468938D02*
Y463932D01*
X1246583Y463532D01*
X1241983D01*
X1241583Y463932D01*
Y468938D01*
X1241983Y469338D01*
X1246583D01*
X1246983Y468938D01*
D02*
G37*
G36*
X1292556Y467741D02*
Y462735D01*
X1292156Y462335D01*
X1287556D01*
X1287156Y462735D01*
Y467741D01*
X1287556Y468141D01*
X1292156D01*
X1292556Y467741D01*
D02*
G37*
G36*
X1236971Y466384D02*
Y461584D01*
X1236471Y461084D01*
X1231971D01*
X1231471Y461584D01*
Y466384D01*
X1231971Y467084D01*
X1236471D01*
X1236971Y466384D01*
D02*
G37*
G36*
X1292556Y459235D02*
Y454229D01*
X1292156Y453829D01*
X1287556D01*
X1287156Y454229D01*
Y459235D01*
X1287556Y459635D01*
X1292156D01*
X1292556Y459235D01*
D02*
G37*
G36*
X1269928Y448784D02*
Y444284D01*
X1269428Y443784D01*
X1264628D01*
X1263928Y444284D01*
Y448784D01*
X1264628Y449284D01*
X1269428D01*
X1269928Y448784D01*
D02*
G37*
G36*
X1260328D02*
Y444284D01*
X1259628Y443784D01*
X1254828D01*
X1254328Y444284D01*
Y448784D01*
X1254828Y449284D01*
X1259628D01*
X1260328Y448784D01*
D02*
G37*
D26*
X1016447Y822060D02*
D03*
Y808059D02*
D03*
X1002266Y784858D02*
D03*
Y798858D02*
D03*
X902239Y827937D02*
D03*
Y813937D02*
D03*
X1273984Y793550D02*
D03*
Y807551D02*
D03*
X1315398Y847712D02*
D03*
Y833711D02*
D03*
X765738Y1030621D02*
D03*
Y1044621D02*
D03*
X807856Y654797D02*
D03*
Y668798D02*
D03*
X850918Y654530D02*
D03*
Y668531D02*
D03*
X899356Y596093D02*
D03*
Y610094D02*
D03*
X885230Y596418D02*
D03*
Y610418D02*
D03*
X899237Y567536D02*
D03*
Y581536D02*
D03*
X885190Y567658D02*
D03*
Y581658D02*
D03*
X816579Y536382D02*
D03*
Y522381D02*
D03*
X653509Y597999D02*
D03*
Y583998D02*
D03*
X1221325Y475624D02*
D03*
Y461623D02*
D03*
X661100Y682078D02*
D03*
Y696078D02*
D03*
D31*
X810134Y1038282D02*
D03*
Y1029783D02*
D03*
X820110Y1038222D02*
D03*
Y1029723D02*
D03*
X791451Y1038195D02*
D03*
Y1029696D02*
D03*
X800173Y1038326D02*
D03*
Y1029827D02*
D03*
X1257919Y538213D02*
D03*
Y546712D02*
D03*
X1268998Y546556D02*
D03*
Y538057D02*
D03*
D34*
X1076933Y537519D02*
D03*
X1057129Y528020D02*
D03*
X1076933Y518520D02*
D03*
X1076761Y564664D02*
D03*
X1056957Y555164D02*
D03*
X1076761Y545665D02*
D03*
D44*
X727641Y1056483D02*
D03*
X741642D02*
D03*
X1002026Y767516D02*
D03*
X1016027D02*
D03*
X1368737Y658653D02*
D03*
X1354737D02*
D03*
X1408713Y676143D02*
D03*
X1394713D02*
D03*
X1408873Y691214D02*
D03*
X1394873D02*
D03*
X1289241Y681049D02*
D03*
X1275241D02*
D03*
X1408700Y767791D02*
D03*
X1394700D02*
D03*
X1408714Y754651D02*
D03*
X1394713D02*
D03*
X796993Y496095D02*
D03*
X810994D02*
D03*
X798674Y506867D02*
D03*
X812674D02*
D03*
X857969Y767935D02*
D03*
X871970D02*
D03*
X858051Y753501D02*
D03*
X872052D02*
D03*
X768552Y700664D02*
D03*
X782553D02*
D03*
X768685Y687223D02*
D03*
X782685D02*
D03*
X824763Y684777D02*
D03*
X838763D02*
D03*
X824211Y699292D02*
D03*
X838211D02*
D03*
X854091Y588326D02*
D03*
X868092D02*
D03*
X796585Y482479D02*
D03*
X810585D02*
D03*
D46*
X692678Y684577D02*
D03*
Y694076D02*
D03*
Y703576D02*
D03*
X719678D02*
D03*
Y694076D02*
D03*
Y684577D02*
D03*
X692035Y1053952D02*
D03*
Y1044453D02*
D03*
Y1034953D02*
D03*
X665034D02*
D03*
Y1044453D02*
D03*
Y1053952D02*
D03*
D158*
X637278Y1014281D02*
D03*
X660730D02*
D03*
X978853Y576465D02*
D03*
X955401D02*
D03*
D166*
X1109147Y729715D02*
D03*
X1119047Y719816D02*
D03*
D167*
X1124519Y733738D02*
D03*
X1134418Y743638D02*
D03*
X1120749Y749096D02*
D03*
X1130649Y758996D02*
D03*
D171*
X884287Y813123D02*
D03*
X865287D02*
D03*
X695075Y1014415D02*
D03*
X676076D02*
D03*
D175*
X772969Y1085556D02*
D03*
X835971D02*
D03*
D176*
X816969Y1060306D02*
D03*
X811970D02*
D03*
X806969D02*
D03*
X801970D02*
D03*
X796969D02*
D03*
X791970D02*
D03*
D179*
X659238Y553050D02*
D03*
X682238Y543550D02*
D03*
X659238Y534050D02*
D03*
X616595Y553050D02*
D03*
X639595Y543550D02*
D03*
X616595Y534050D02*
D03*
X579585Y533671D02*
D03*
X602585Y543172D02*
D03*
X579585Y552672D02*
D03*
D180*
X1256713Y460615D02*
D03*
X1275712D02*
D03*
D181*
Y483688D02*
D03*
X1266213D02*
D03*
X1256713D02*
D03*
D213*
X796744Y519650D02*
D03*
Y537649D02*
D03*
X778502Y670463D02*
D03*
Y652465D02*
D03*
X831447Y670412D02*
D03*
Y652413D02*
D03*
D214*
X873879Y605926D02*
D03*
X855880D02*
D03*
X851677Y569073D02*
D03*
X869675D02*
D03*
D215*
X1114428Y957580D02*
D03*
X942429D02*
D03*
D216*
X717542Y1113976D02*
D03*
X708541Y1084918D02*
D03*
X639542Y1113979D02*
D03*
X642541Y1084918D02*
D03*
X645541Y1113976D02*
D03*
X648541Y1084918D02*
D03*
X651541Y1113976D02*
D03*
X654543Y1084918D02*
D03*
X657543Y1113976D02*
D03*
X660542Y1084918D02*
D03*
X663542Y1113976D02*
D03*
X666542Y1084918D02*
D03*
X669542Y1113976D02*
D03*
X672541Y1084918D02*
D03*
X675541Y1113976D02*
D03*
X678541Y1084918D02*
D03*
X681541Y1113976D02*
D03*
X684543Y1084918D02*
D03*
X687543Y1113976D02*
D03*
X690542Y1084918D02*
D03*
X693542Y1113976D02*
D03*
X696542Y1084918D02*
D03*
X699542Y1113976D02*
D03*
X702541Y1084918D02*
D03*
X705541Y1113976D02*
D03*
X711541D02*
D03*
X714543Y1084918D02*
D03*
X720542D02*
D03*
X723542Y1113976D02*
D03*
X726542Y1084918D02*
D03*
X729541Y1113976D02*
D03*
D217*
X943026Y930348D02*
D03*
X953026D02*
D03*
X948025Y917348D02*
D03*
D218*
X633042Y1110478D02*
D03*
X736041D02*
D03*
D219*
X880761Y781494D02*
D03*
Y785494D02*
D03*
X864761Y781494D02*
D03*
X880761Y789494D02*
D03*
Y793494D02*
D03*
X876761Y781494D02*
D03*
Y785494D02*
D03*
Y789494D02*
D03*
Y793494D02*
D03*
X872761Y781494D02*
D03*
Y785494D02*
D03*
Y789494D02*
D03*
Y793494D02*
D03*
X868761Y781494D02*
D03*
Y785494D02*
D03*
Y789494D02*
D03*
Y793494D02*
D03*
X864761Y785494D02*
D03*
Y789494D02*
D03*
Y793494D02*
D03*
D220*
X722669Y614922D02*
D03*
Y640422D02*
D03*
D221*
X683258Y739476D02*
D03*
X642699D02*
D03*
M02*
